<?xml version="1.0" encoding="utf-8"?>
<svg xmlns="http://www.w3.org/2000/svg" xmlns:xlink="http://www.w3.org/1999/xlink" width="450" height="350" viewBox="0 0 1800 1400">
<defs>
  <clipPath id="clip930">
    <rect x="0" y="0" width="1800" height="1400"/>
  </clipPath>
</defs>
<path clip-path="url(#clip930)" d="
M0 1400 L1800 1400 L1800 0 L0 0  Z
  " fill="#ffffff" fill-rule="evenodd" fill-opacity="1"/>
<defs>
  <clipPath id="clip931">
    <rect x="360" y="0" width="1261" height="1261"/>
  </clipPath>
</defs>
<path clip-path="url(#clip930)" d="
M180.274 1282.69 L1752.76 1282.69 L1752.76 47.2441 L180.274 47.2441  Z
  " fill="#ffffff" fill-rule="evenodd" fill-opacity="1"/>
<defs>
  <clipPath id="clip932">
    <rect x="180" y="47" width="1573" height="1236"/>
  </clipPath>
</defs>
<polyline clip-path="url(#clip932)" style="stroke:#000000; stroke-linecap:round; stroke-linejoin:round; stroke-width:2; stroke-opacity:0.1; fill:none" points="
  521.473,1282.69 521.473,47.2441 
  "/>
<polyline clip-path="url(#clip932)" style="stroke:#000000; stroke-linecap:round; stroke-linejoin:round; stroke-width:2; stroke-opacity:0.1; fill:none" points="
  892.341,1282.69 892.341,47.2441 
  "/>
<polyline clip-path="url(#clip932)" style="stroke:#000000; stroke-linecap:round; stroke-linejoin:round; stroke-width:2; stroke-opacity:0.1; fill:none" points="
  1263.21,1282.69 1263.21,47.2441 
  "/>
<polyline clip-path="url(#clip932)" style="stroke:#000000; stroke-linecap:round; stroke-linejoin:round; stroke-width:2; stroke-opacity:0.1; fill:none" points="
  1634.08,1282.69 1634.08,47.2441 
  "/>
<polyline clip-path="url(#clip930)" style="stroke:#000000; stroke-linecap:round; stroke-linejoin:round; stroke-width:4; stroke-opacity:1; fill:none" points="
  180.274,1282.69 1752.76,1282.69 
  "/>
<polyline clip-path="url(#clip930)" style="stroke:#000000; stroke-linecap:round; stroke-linejoin:round; stroke-width:4; stroke-opacity:1; fill:none" points="
  521.473,1282.69 521.473,1263.79 
  "/>
<polyline clip-path="url(#clip930)" style="stroke:#000000; stroke-linecap:round; stroke-linejoin:round; stroke-width:4; stroke-opacity:1; fill:none" points="
  892.341,1282.69 892.341,1263.79 
  "/>
<polyline clip-path="url(#clip930)" style="stroke:#000000; stroke-linecap:round; stroke-linejoin:round; stroke-width:4; stroke-opacity:1; fill:none" points="
  1263.21,1282.69 1263.21,1263.79 
  "/>
<polyline clip-path="url(#clip930)" style="stroke:#000000; stroke-linecap:round; stroke-linejoin:round; stroke-width:4; stroke-opacity:1; fill:none" points="
  1634.08,1282.69 1634.08,1263.79 
  "/>
<path clip-path="url(#clip930)" d="M511.751 1305.73 L530.107 1305.73 L530.107 1309.66 L516.033 1309.66 L516.033 1318.14 Q517.052 1317.79 518.07 1317.63 Q519.089 1317.44 520.107 1317.44 Q525.894 1317.44 529.274 1320.61 Q532.653 1323.78 532.653 1329.2 Q532.653 1334.78 529.181 1337.88 Q525.709 1340.96 519.39 1340.96 Q517.214 1340.96 514.945 1340.59 Q512.7 1340.22 510.292 1339.48 L510.292 1334.78 Q512.376 1335.91 514.598 1336.47 Q516.82 1337.02 519.297 1337.02 Q523.302 1337.02 525.64 1334.92 Q527.977 1332.81 527.977 1329.2 Q527.977 1325.59 525.64 1323.48 Q523.302 1321.38 519.297 1321.38 Q517.422 1321.38 515.547 1321.79 Q513.695 1322.21 511.751 1323.09 L511.751 1305.73 Z" fill="#000000" fill-rule="evenodd" fill-opacity="1" /><path clip-path="url(#clip930)" d="M867.029 1336.35 L874.668 1336.35 L874.668 1309.99 L866.358 1311.65 L866.358 1307.39 L874.621 1305.73 L879.297 1305.73 L879.297 1336.35 L886.936 1336.35 L886.936 1340.29 L867.029 1340.29 L867.029 1336.35 Z" fill="#000000" fill-rule="evenodd" fill-opacity="1" /><path clip-path="url(#clip930)" d="M906.381 1308.81 Q902.769 1308.81 900.941 1312.37 Q899.135 1315.91 899.135 1323.04 Q899.135 1330.15 900.941 1333.71 Q902.769 1337.26 906.381 1337.26 Q910.015 1337.26 911.82 1333.71 Q913.649 1330.15 913.649 1323.04 Q913.649 1315.91 911.82 1312.37 Q910.015 1308.81 906.381 1308.81 M906.381 1305.1 Q912.191 1305.1 915.246 1309.71 Q918.325 1314.29 918.325 1323.04 Q918.325 1331.77 915.246 1336.38 Q912.191 1340.96 906.381 1340.96 Q900.57 1340.96 897.492 1336.38 Q894.436 1331.77 894.436 1323.04 Q894.436 1314.29 897.492 1309.71 Q900.57 1305.1 906.381 1305.1 Z" fill="#000000" fill-rule="evenodd" fill-opacity="1" /><path clip-path="url(#clip930)" d="M1238.39 1336.35 L1246.03 1336.35 L1246.03 1309.99 L1237.72 1311.65 L1237.72 1307.39 L1245.99 1305.73 L1250.66 1305.73 L1250.66 1336.35 L1258.3 1336.35 L1258.3 1340.29 L1238.39 1340.29 L1238.39 1336.35 Z" fill="#000000" fill-rule="evenodd" fill-opacity="1" /><path clip-path="url(#clip930)" d="M1267.79 1305.73 L1286.15 1305.73 L1286.15 1309.66 L1272.08 1309.66 L1272.08 1318.14 Q1273.09 1317.79 1274.11 1317.63 Q1275.13 1317.44 1276.15 1317.44 Q1281.94 1317.44 1285.32 1320.61 Q1288.7 1323.78 1288.7 1329.2 Q1288.7 1334.78 1285.22 1337.88 Q1281.75 1340.96 1275.43 1340.96 Q1273.26 1340.96 1270.99 1340.59 Q1268.74 1340.22 1266.33 1339.48 L1266.33 1334.78 Q1268.42 1335.91 1270.64 1336.47 Q1272.86 1337.02 1275.34 1337.02 Q1279.34 1337.02 1281.68 1334.92 Q1284.02 1332.81 1284.02 1329.2 Q1284.02 1325.59 1281.68 1323.48 Q1279.34 1321.38 1275.34 1321.38 Q1273.46 1321.38 1271.59 1321.79 Q1269.74 1322.21 1267.79 1323.09 L1267.79 1305.73 Z" fill="#000000" fill-rule="evenodd" fill-opacity="1" /><path clip-path="url(#clip930)" d="M1612.85 1336.35 L1629.17 1336.35 L1629.17 1340.29 L1607.23 1340.29 L1607.23 1336.35 Q1609.89 1333.6 1614.47 1328.97 Q1619.08 1324.32 1620.26 1322.97 Q1622.5 1320.45 1623.38 1318.71 Q1624.29 1316.95 1624.29 1315.26 Q1624.29 1312.51 1622.34 1310.77 Q1620.42 1309.04 1617.32 1309.04 Q1615.12 1309.04 1612.67 1309.8 Q1610.24 1310.57 1607.46 1312.12 L1607.46 1307.39 Q1610.28 1306.26 1612.74 1305.68 Q1615.19 1305.1 1617.23 1305.1 Q1622.6 1305.1 1625.79 1307.79 Q1628.99 1310.47 1628.99 1314.96 Q1628.99 1317.09 1628.18 1319.01 Q1627.39 1320.91 1625.28 1323.51 Q1624.7 1324.18 1621.6 1327.39 Q1618.5 1330.59 1612.85 1336.35 Z" fill="#000000" fill-rule="evenodd" fill-opacity="1" /><path clip-path="url(#clip930)" d="M1648.99 1308.81 Q1645.37 1308.81 1643.55 1312.37 Q1641.74 1315.91 1641.74 1323.04 Q1641.74 1330.15 1643.55 1333.71 Q1645.37 1337.26 1648.99 1337.26 Q1652.62 1337.26 1654.43 1333.71 Q1656.25 1330.15 1656.25 1323.04 Q1656.25 1315.91 1654.43 1312.37 Q1652.62 1308.81 1648.99 1308.81 M1648.99 1305.1 Q1654.8 1305.1 1657.85 1309.71 Q1660.93 1314.29 1660.93 1323.04 Q1660.93 1331.77 1657.85 1336.38 Q1654.8 1340.96 1648.99 1340.96 Q1643.18 1340.96 1640.1 1336.38 Q1637.04 1331.77 1637.04 1323.04 Q1637.04 1314.29 1640.1 1309.71 Q1643.18 1305.1 1648.99 1305.1 Z" fill="#000000" fill-rule="evenodd" fill-opacity="1" /><polyline clip-path="url(#clip932)" style="stroke:#000000; stroke-linecap:round; stroke-linejoin:round; stroke-width:2; stroke-opacity:0.1; fill:none" points="
  180.274,1257.86 1752.76,1257.86 
  "/>
<polyline clip-path="url(#clip932)" style="stroke:#000000; stroke-linecap:round; stroke-linejoin:round; stroke-width:2; stroke-opacity:0.1; fill:none" points="
  180.274,963.948 1752.76,963.948 
  "/>
<polyline clip-path="url(#clip932)" style="stroke:#000000; stroke-linecap:round; stroke-linejoin:round; stroke-width:2; stroke-opacity:0.1; fill:none" points="
  180.274,670.035 1752.76,670.035 
  "/>
<polyline clip-path="url(#clip932)" style="stroke:#000000; stroke-linecap:round; stroke-linejoin:round; stroke-width:2; stroke-opacity:0.1; fill:none" points="
  180.274,376.122 1752.76,376.122 
  "/>
<polyline clip-path="url(#clip932)" style="stroke:#000000; stroke-linecap:round; stroke-linejoin:round; stroke-width:2; stroke-opacity:0.1; fill:none" points="
  180.274,82.2095 1752.76,82.2095 
  "/>
<polyline clip-path="url(#clip930)" style="stroke:#000000; stroke-linecap:round; stroke-linejoin:round; stroke-width:4; stroke-opacity:1; fill:none" points="
  180.274,1282.69 180.274,47.2441 
  "/>
<polyline clip-path="url(#clip930)" style="stroke:#000000; stroke-linecap:round; stroke-linejoin:round; stroke-width:4; stroke-opacity:1; fill:none" points="
  180.274,1257.86 199.172,1257.86 
  "/>
<polyline clip-path="url(#clip930)" style="stroke:#000000; stroke-linecap:round; stroke-linejoin:round; stroke-width:4; stroke-opacity:1; fill:none" points="
  180.274,963.948 199.172,963.948 
  "/>
<polyline clip-path="url(#clip930)" style="stroke:#000000; stroke-linecap:round; stroke-linejoin:round; stroke-width:4; stroke-opacity:1; fill:none" points="
  180.274,670.035 199.172,670.035 
  "/>
<polyline clip-path="url(#clip930)" style="stroke:#000000; stroke-linecap:round; stroke-linejoin:round; stroke-width:4; stroke-opacity:1; fill:none" points="
  180.274,376.122 199.172,376.122 
  "/>
<polyline clip-path="url(#clip930)" style="stroke:#000000; stroke-linecap:round; stroke-linejoin:round; stroke-width:4; stroke-opacity:1; fill:none" points="
  180.274,82.2095 199.172,82.2095 
  "/>
<path clip-path="url(#clip930)" d="M65.9365 1243.66 Q62.3254 1243.66 60.4967 1247.22 Q58.6912 1250.77 58.6912 1257.9 Q58.6912 1265 60.4967 1268.57 Q62.3254 1272.11 65.9365 1272.11 Q69.5707 1272.11 71.3763 1268.57 Q73.205 1265 73.205 1257.9 Q73.205 1250.77 71.3763 1247.22 Q69.5707 1243.66 65.9365 1243.66 M65.9365 1239.96 Q71.7467 1239.96 74.8022 1244.56 Q77.8809 1249.15 77.8809 1257.9 Q77.8809 1266.62 74.8022 1271.23 Q71.7467 1275.81 65.9365 1275.81 Q60.1264 1275.81 57.0477 1271.23 Q53.9921 1266.62 53.9921 1257.9 Q53.9921 1249.15 57.0477 1244.56 Q60.1264 1239.96 65.9365 1239.96 Z" fill="#000000" fill-rule="evenodd" fill-opacity="1" /><path clip-path="url(#clip930)" d="M86.0984 1269.26 L90.9827 1269.26 L90.9827 1275.14 L86.0984 1275.14 L86.0984 1269.26 Z" fill="#000000" fill-rule="evenodd" fill-opacity="1" /><path clip-path="url(#clip930)" d="M111.168 1243.66 Q107.557 1243.66 105.728 1247.22 Q103.922 1250.77 103.922 1257.9 Q103.922 1265 105.728 1268.57 Q107.557 1272.11 111.168 1272.11 Q114.802 1272.11 116.608 1268.57 Q118.436 1265 118.436 1257.9 Q118.436 1250.77 116.608 1247.22 Q114.802 1243.66 111.168 1243.66 M111.168 1239.96 Q116.978 1239.96 120.033 1244.56 Q123.112 1249.15 123.112 1257.9 Q123.112 1266.62 120.033 1271.23 Q116.978 1275.81 111.168 1275.81 Q105.358 1275.81 102.279 1271.23 Q99.2234 1266.62 99.2234 1257.9 Q99.2234 1249.15 102.279 1244.56 Q105.358 1239.96 111.168 1239.96 Z" fill="#000000" fill-rule="evenodd" fill-opacity="1" /><path clip-path="url(#clip930)" d="M141.33 1243.66 Q137.719 1243.66 135.89 1247.22 Q134.084 1250.77 134.084 1257.9 Q134.084 1265 135.89 1268.57 Q137.719 1272.11 141.33 1272.11 Q144.964 1272.11 146.769 1268.57 Q148.598 1265 148.598 1257.9 Q148.598 1250.77 146.769 1247.22 Q144.964 1243.66 141.33 1243.66 M141.33 1239.96 Q147.14 1239.96 150.195 1244.56 Q153.274 1249.15 153.274 1257.9 Q153.274 1266.62 150.195 1271.23 Q147.14 1275.81 141.33 1275.81 Q135.519 1275.81 132.441 1271.23 Q129.385 1266.62 129.385 1257.9 Q129.385 1249.15 132.441 1244.56 Q135.519 1239.96 141.33 1239.96 Z" fill="#000000" fill-rule="evenodd" fill-opacity="1" /><path clip-path="url(#clip930)" d="M66.9319 949.747 Q63.3208 949.747 61.4921 953.312 Q59.6865 956.853 59.6865 963.983 Q59.6865 971.089 61.4921 974.654 Q63.3208 978.196 66.9319 978.196 Q70.5661 978.196 72.3717 974.654 Q74.2004 971.089 74.2004 963.983 Q74.2004 956.853 72.3717 953.312 Q70.5661 949.747 66.9319 949.747 M66.9319 946.043 Q72.742 946.043 75.7976 950.65 Q78.8763 955.233 78.8763 963.983 Q78.8763 972.71 75.7976 977.316 Q72.742 981.9 66.9319 981.9 Q61.1217 981.9 58.043 977.316 Q54.9875 972.71 54.9875 963.983 Q54.9875 955.233 58.043 950.65 Q61.1217 946.043 66.9319 946.043 Z" fill="#000000" fill-rule="evenodd" fill-opacity="1" /><path clip-path="url(#clip930)" d="M87.0938 975.349 L91.978 975.349 L91.978 981.228 L87.0938 981.228 L87.0938 975.349 Z" fill="#000000" fill-rule="evenodd" fill-opacity="1" /><path clip-path="url(#clip930)" d="M106.191 977.293 L122.51 977.293 L122.51 981.228 L100.566 981.228 L100.566 977.293 Q103.228 974.539 107.811 969.909 Q112.418 965.256 113.598 963.914 Q115.844 961.39 116.723 959.654 Q117.626 957.895 117.626 956.205 Q117.626 953.451 115.682 951.715 Q113.76 949.978 110.658 949.978 Q108.459 949.978 106.006 950.742 Q103.575 951.506 100.797 953.057 L100.797 948.335 Q103.621 947.201 106.075 946.622 Q108.529 946.043 110.566 946.043 Q115.936 946.043 119.131 948.728 Q122.325 951.414 122.325 955.904 Q122.325 958.034 121.515 959.955 Q120.728 961.853 118.621 964.446 Q118.043 965.117 114.941 968.335 Q111.839 971.529 106.191 977.293 Z" fill="#000000" fill-rule="evenodd" fill-opacity="1" /><path clip-path="url(#clip930)" d="M132.371 946.668 L150.728 946.668 L150.728 950.603 L136.654 950.603 L136.654 959.076 Q137.672 958.728 138.691 958.566 Q139.709 958.381 140.728 958.381 Q146.515 958.381 149.894 961.552 Q153.274 964.724 153.274 970.14 Q153.274 975.719 149.802 978.821 Q146.33 981.9 140.01 981.9 Q137.834 981.9 135.566 981.529 Q133.32 981.159 130.913 980.418 L130.913 975.719 Q132.996 976.853 135.219 977.409 Q137.441 977.964 139.918 977.964 Q143.922 977.964 146.26 975.858 Q148.598 973.751 148.598 970.14 Q148.598 966.529 146.26 964.423 Q143.922 962.316 139.918 962.316 Q138.043 962.316 136.168 962.733 Q134.316 963.15 132.371 964.029 L132.371 946.668 Z" fill="#000000" fill-rule="evenodd" fill-opacity="1" /><path clip-path="url(#clip930)" d="M65.9365 655.834 Q62.3254 655.834 60.4967 659.399 Q58.6912 662.94 58.6912 670.07 Q58.6912 677.177 60.4967 680.741 Q62.3254 684.283 65.9365 684.283 Q69.5707 684.283 71.3763 680.741 Q73.205 677.177 73.205 670.07 Q73.205 662.94 71.3763 659.399 Q69.5707 655.834 65.9365 655.834 M65.9365 652.13 Q71.7467 652.13 74.8022 656.737 Q77.8809 661.32 77.8809 670.07 Q77.8809 678.797 74.8022 683.403 Q71.7467 687.987 65.9365 687.987 Q60.1264 687.987 57.0477 683.403 Q53.9921 678.797 53.9921 670.07 Q53.9921 661.32 57.0477 656.737 Q60.1264 652.13 65.9365 652.13 Z" fill="#000000" fill-rule="evenodd" fill-opacity="1" /><path clip-path="url(#clip930)" d="M86.0984 681.436 L90.9827 681.436 L90.9827 687.315 L86.0984 687.315 L86.0984 681.436 Z" fill="#000000" fill-rule="evenodd" fill-opacity="1" /><path clip-path="url(#clip930)" d="M101.214 652.755 L119.57 652.755 L119.57 656.691 L105.496 656.691 L105.496 665.163 Q106.515 664.815 107.534 664.653 Q108.552 664.468 109.571 664.468 Q115.358 664.468 118.737 667.64 Q122.117 670.811 122.117 676.227 Q122.117 681.806 118.645 684.908 Q115.172 687.987 108.853 687.987 Q106.677 687.987 104.409 687.616 Q102.163 687.246 99.7558 686.505 L99.7558 681.806 Q101.839 682.94 104.061 683.496 Q106.284 684.051 108.76 684.051 Q112.765 684.051 115.103 681.945 Q117.441 679.839 117.441 676.227 Q117.441 672.616 115.103 670.51 Q112.765 668.403 108.76 668.403 Q106.885 668.403 105.01 668.82 Q103.159 669.237 101.214 670.116 L101.214 652.755 Z" fill="#000000" fill-rule="evenodd" fill-opacity="1" /><path clip-path="url(#clip930)" d="M141.33 655.834 Q137.719 655.834 135.89 659.399 Q134.084 662.94 134.084 670.07 Q134.084 677.177 135.89 680.741 Q137.719 684.283 141.33 684.283 Q144.964 684.283 146.769 680.741 Q148.598 677.177 148.598 670.07 Q148.598 662.94 146.769 659.399 Q144.964 655.834 141.33 655.834 M141.33 652.13 Q147.14 652.13 150.195 656.737 Q153.274 661.32 153.274 670.07 Q153.274 678.797 150.195 683.403 Q147.14 687.987 141.33 687.987 Q135.519 687.987 132.441 683.403 Q129.385 678.797 129.385 670.07 Q129.385 661.32 132.441 656.737 Q135.519 652.13 141.33 652.13 Z" fill="#000000" fill-rule="evenodd" fill-opacity="1" /><path clip-path="url(#clip930)" d="M66.9319 361.921 Q63.3208 361.921 61.4921 365.486 Q59.6865 369.028 59.6865 376.157 Q59.6865 383.264 61.4921 386.828 Q63.3208 390.37 66.9319 390.37 Q70.5661 390.37 72.3717 386.828 Q74.2004 383.264 74.2004 376.157 Q74.2004 369.028 72.3717 365.486 Q70.5661 361.921 66.9319 361.921 M66.9319 358.217 Q72.742 358.217 75.7976 362.824 Q78.8763 367.407 78.8763 376.157 Q78.8763 384.884 75.7976 389.49 Q72.742 394.074 66.9319 394.074 Q61.1217 394.074 58.043 389.49 Q54.9875 384.884 54.9875 376.157 Q54.9875 367.407 58.043 362.824 Q61.1217 358.217 66.9319 358.217 Z" fill="#000000" fill-rule="evenodd" fill-opacity="1" /><path clip-path="url(#clip930)" d="M87.0938 387.523 L91.978 387.523 L91.978 393.402 L87.0938 393.402 L87.0938 387.523 Z" fill="#000000" fill-rule="evenodd" fill-opacity="1" /><path clip-path="url(#clip930)" d="M100.983 358.842 L123.205 358.842 L123.205 360.833 L110.658 393.402 L105.774 393.402 L117.58 362.778 L100.983 362.778 L100.983 358.842 Z" fill="#000000" fill-rule="evenodd" fill-opacity="1" /><path clip-path="url(#clip930)" d="M132.371 358.842 L150.728 358.842 L150.728 362.778 L136.654 362.778 L136.654 371.25 Q137.672 370.903 138.691 370.741 Q139.709 370.555 140.728 370.555 Q146.515 370.555 149.894 373.727 Q153.274 376.898 153.274 382.315 Q153.274 387.893 149.802 390.995 Q146.33 394.074 140.01 394.074 Q137.834 394.074 135.566 393.703 Q133.32 393.333 130.913 392.592 L130.913 387.893 Q132.996 389.027 135.219 389.583 Q137.441 390.139 139.918 390.139 Q143.922 390.139 146.26 388.032 Q148.598 385.926 148.598 382.315 Q148.598 378.703 146.26 376.597 Q143.922 374.49 139.918 374.49 Q138.043 374.49 136.168 374.907 Q134.316 375.324 132.371 376.203 L132.371 358.842 Z" fill="#000000" fill-rule="evenodd" fill-opacity="1" /><path clip-path="url(#clip930)" d="M56.7467 95.5543 L64.3856 95.5543 L64.3856 69.1887 L56.0754 70.8554 L56.0754 66.5961 L64.3393 64.9295 L69.0152 64.9295 L69.0152 95.5543 L76.654 95.5543 L76.654 99.4895 L56.7467 99.4895 L56.7467 95.5543 Z" fill="#000000" fill-rule="evenodd" fill-opacity="1" /><path clip-path="url(#clip930)" d="M86.0984 93.6099 L90.9827 93.6099 L90.9827 99.4895 L86.0984 99.4895 L86.0984 93.6099 Z" fill="#000000" fill-rule="evenodd" fill-opacity="1" /><path clip-path="url(#clip930)" d="M111.168 68.0082 Q107.557 68.0082 105.728 71.573 Q103.922 75.1146 103.922 82.2442 Q103.922 89.3506 105.728 92.9154 Q107.557 96.4571 111.168 96.4571 Q114.802 96.4571 116.608 92.9154 Q118.436 89.3506 118.436 82.2442 Q118.436 75.1146 116.608 71.573 Q114.802 68.0082 111.168 68.0082 M111.168 64.3045 Q116.978 64.3045 120.033 68.9109 Q123.112 73.4943 123.112 82.2442 Q123.112 90.971 120.033 95.5775 Q116.978 100.161 111.168 100.161 Q105.358 100.161 102.279 95.5775 Q99.2234 90.971 99.2234 82.2442 Q99.2234 73.4943 102.279 68.9109 Q105.358 64.3045 111.168 64.3045 Z" fill="#000000" fill-rule="evenodd" fill-opacity="1" /><path clip-path="url(#clip930)" d="M141.33 68.0082 Q137.719 68.0082 135.89 71.573 Q134.084 75.1146 134.084 82.2442 Q134.084 89.3506 135.89 92.9154 Q137.719 96.4571 141.33 96.4571 Q144.964 96.4571 146.769 92.9154 Q148.598 89.3506 148.598 82.2442 Q148.598 75.1146 146.769 71.573 Q144.964 68.0082 141.33 68.0082 M141.33 64.3045 Q147.14 64.3045 150.195 68.9109 Q153.274 73.4943 153.274 82.2442 Q153.274 90.971 150.195 95.5775 Q147.14 100.161 141.33 100.161 Q135.519 100.161 132.441 95.5775 Q129.385 90.971 129.385 82.2442 Q129.385 73.4943 132.441 68.9109 Q135.519 64.3045 141.33 64.3045 Z" fill="#000000" fill-rule="evenodd" fill-opacity="1" /><polyline clip-path="url(#clip932)" style="stroke:#009af9; stroke-linecap:round; stroke-linejoin:round; stroke-width:4; stroke-opacity:1; fill:none" points="
  224.778,82.2095 298.952,1201.3 373.126,1247.15 447.299,1246.18 521.473,1247.51 595.647,1245.3 669.82,1246.19 743.994,1245.99 818.168,1245.8 892.341,1244.7 
  966.515,1247.1 1040.69,1245.81 1114.86,1246.93 1189.04,1247.72 1263.21,1243.88 1337.38,1246.71 1411.56,1246.99 1485.73,1247.61 1559.9,1245.21 1634.08,1246.72 
  1708.25,1245.98 
  "/>
<polyline clip-path="url(#clip932)" style="stroke:#e26f46; stroke-linecap:round; stroke-linejoin:round; stroke-width:4; stroke-opacity:1; fill:none" points="
  224.778,82.2095 298.952,301.994 373.126,480.55 447.299,625.963 521.473,744.29 595.647,840.383 669.82,918.991 743.994,982.252 818.168,1034.28 892.341,1076.42 
  966.515,1110.57 1040.69,1137.58 1114.86,1160.46 1189.04,1179.14 1263.21,1191.8 1337.38,1202.32 1411.56,1210.38 1485.73,1216.36 1559.9,1220.75 1634.08,1223.31 
  1708.25,1224.51 
  "/>
<path clip-path="url(#clip930)" d="
M1383.32 243.946 L1700.34 243.946 L1700.34 88.4256 L1383.32 88.4256  Z
  " fill="#ffffff" fill-rule="evenodd" fill-opacity="1"/>
<polyline clip-path="url(#clip930)" style="stroke:#000000; stroke-linecap:round; stroke-linejoin:round; stroke-width:4; stroke-opacity:1; fill:none" points="
  1383.32,243.946 1700.34,243.946 1700.34,88.4256 1383.32,88.4256 1383.32,243.946 
  "/>
<polyline clip-path="url(#clip930)" style="stroke:#009af9; stroke-linecap:round; stroke-linejoin:round; stroke-width:4; stroke-opacity:1; fill:none" points="
  1400.8,140.266 1505.63,140.266 
  "/>
<path clip-path="url(#clip930)" d="M1523.1 122.986 L1527.78 122.986 L1527.78 137.152 L1544.77 137.152 L1544.77 122.986 L1549.44 122.986 L1549.44 157.546 L1544.77 157.546 L1544.77 141.087 L1527.78 141.087 L1527.78 157.546 L1523.1 157.546 L1523.1 122.986 Z" fill="#000000" fill-rule="evenodd" fill-opacity="1" /><path clip-path="url(#clip930)" d="M1558.75 122.986 L1565.72 122.986 L1574.54 146.504 L1583.4 122.986 L1590.37 122.986 L1590.37 157.546 L1585.81 157.546 L1585.81 127.198 L1576.9 150.902 L1572.2 150.902 L1563.29 127.198 L1563.29 157.546 L1558.75 157.546 L1558.75 122.986 Z" fill="#000000" fill-rule="evenodd" fill-opacity="1" /><path clip-path="url(#clip930)" d="M1625.53 125.648 L1625.53 130.578 Q1623.17 128.379 1620.48 127.291 Q1617.82 126.203 1614.81 126.203 Q1608.89 126.203 1605.74 129.837 Q1602.59 133.448 1602.59 140.3 Q1602.59 147.129 1605.74 150.763 Q1608.89 154.374 1614.81 154.374 Q1617.82 154.374 1620.48 153.286 Q1623.17 152.198 1625.53 149.999 L1625.53 154.884 Q1623.08 156.55 1620.32 157.384 Q1617.59 158.217 1614.53 158.217 Q1606.69 158.217 1602.17 153.425 Q1597.66 148.61 1597.66 140.3 Q1597.66 131.967 1602.17 127.175 Q1606.69 122.361 1614.53 122.361 Q1617.64 122.361 1620.37 123.194 Q1623.12 124.004 1625.53 125.648 Z" fill="#000000" fill-rule="evenodd" fill-opacity="1" /><polyline clip-path="url(#clip930)" style="stroke:#e26f46; stroke-linecap:round; stroke-linejoin:round; stroke-width:4; stroke-opacity:1; fill:none" points="
  1400.8,192.106 1505.63,192.106 
  "/>
<path clip-path="url(#clip930)" d="M1523.1 174.826 L1527.78 174.826 L1527.78 188.992 L1544.77 188.992 L1544.77 174.826 L1549.44 174.826 L1549.44 209.386 L1544.77 209.386 L1544.77 192.927 L1527.78 192.927 L1527.78 209.386 L1523.1 209.386 L1523.1 174.826 Z" fill="#000000" fill-rule="evenodd" fill-opacity="1" /><path clip-path="url(#clip930)" d="M1570.35 196.353 Q1565.18 196.353 1563.19 197.534 Q1561.2 198.714 1561.2 201.562 Q1561.2 203.83 1562.68 205.173 Q1564.19 206.492 1566.76 206.492 Q1570.3 206.492 1572.43 203.992 Q1574.58 201.469 1574.58 197.302 L1574.58 196.353 L1570.35 196.353 M1578.84 194.594 L1578.84 209.386 L1574.58 209.386 L1574.58 205.45 Q1573.12 207.811 1570.95 208.946 Q1568.77 210.057 1565.62 210.057 Q1561.64 210.057 1559.28 207.835 Q1556.94 205.589 1556.94 201.839 Q1556.94 197.464 1559.86 195.242 Q1562.8 193.02 1568.61 193.02 L1574.58 193.02 L1574.58 192.603 Q1574.58 189.663 1572.64 188.066 Q1570.72 186.446 1567.22 186.446 Q1565 186.446 1562.89 186.978 Q1560.79 187.511 1558.84 188.575 L1558.84 184.64 Q1561.18 183.738 1563.38 183.298 Q1565.58 182.835 1567.66 182.835 Q1573.29 182.835 1576.06 185.751 Q1578.84 188.668 1578.84 194.594 Z" fill="#000000" fill-rule="evenodd" fill-opacity="1" /><path clip-path="url(#clip930)" d="M1604.19 193.182 Q1605.69 193.691 1607.1 195.358 Q1608.54 197.025 1609.97 199.941 L1614.72 209.386 L1609.7 209.386 L1605.28 200.52 Q1603.56 197.048 1601.94 195.913 Q1600.35 194.779 1597.57 194.779 L1592.47 194.779 L1592.47 209.386 L1587.8 209.386 L1587.8 174.826 L1598.35 174.826 Q1604.28 174.826 1607.2 177.302 Q1610.11 179.779 1610.11 184.779 Q1610.11 188.043 1608.59 190.196 Q1607.08 192.349 1604.19 193.182 M1592.47 178.668 L1592.47 190.937 L1598.35 190.937 Q1601.73 190.937 1603.45 189.386 Q1605.18 187.812 1605.18 184.779 Q1605.18 181.747 1603.45 180.219 Q1601.73 178.668 1598.35 178.668 L1592.47 178.668 Z" fill="#000000" fill-rule="evenodd" fill-opacity="1" /><path clip-path="url(#clip930)" d="M1630.37 179.432 L1624.03 196.631 L1636.73 196.631 L1630.37 179.432 M1627.73 174.826 L1633.03 174.826 L1646.2 209.386 L1641.34 209.386 L1638.19 200.52 L1622.61 200.52 L1619.47 209.386 L1614.53 209.386 L1627.73 174.826 Z" fill="#000000" fill-rule="evenodd" fill-opacity="1" /><path clip-path="url(#clip930)" d="M1651.25 174.826 L1658.22 174.826 L1667.03 198.344 L1675.9 174.826 L1682.87 174.826 L1682.87 209.386 L1678.31 209.386 L1678.31 179.038 L1669.4 202.742 L1664.7 202.742 L1655.78 179.038 L1655.78 209.386 L1651.25 209.386 L1651.25 174.826 Z" fill="#000000" fill-rule="evenodd" fill-opacity="1" /></svg>
