<?xml version="1.0" encoding="utf-8"?>
<svg xmlns="http://www.w3.org/2000/svg" xmlns:xlink="http://www.w3.org/1999/xlink" width="400" height="300" viewBox="0 0 1600 1200">
<defs>
  <clipPath id="clip210">
    <rect x="0" y="0" width="1600" height="1200"/>
  </clipPath>
</defs>
<path clip-path="url(#clip210)" d="M0 1200 L1600 1200 L1600 0 L0 0  Z" fill="#ffffff" fill-rule="evenodd" fill-opacity="1"/>
<defs>
  <clipPath id="clip211">
    <rect x="320" y="0" width="1121" height="1121"/>
  </clipPath>
</defs>
<path clip-path="url(#clip210)" d="M316.909 1016.92 L1552.76 1016.92 L1552.76 183.247 L316.909 183.247  Z" fill="#ffffff" fill-rule="evenodd" fill-opacity="1"/>
<defs>
  <clipPath id="clip212">
    <rect x="316" y="183" width="1237" height="835"/>
  </clipPath>
</defs>
<polyline clip-path="url(#clip210)" style="stroke:#000000; stroke-linecap:round; stroke-linejoin:round; stroke-width:4; stroke-opacity:1; fill:none" points="316.909,1016.92 1552.76,1016.92 "/>
<polyline clip-path="url(#clip210)" style="stroke:#000000; stroke-linecap:round; stroke-linejoin:round; stroke-width:4; stroke-opacity:1; fill:none" points="563.867,1016.92 563.867,1000.67 "/>
<polyline clip-path="url(#clip210)" style="stroke:#000000; stroke-linecap:round; stroke-linejoin:round; stroke-width:4; stroke-opacity:1; fill:none" points="1305.8,1016.92 1305.8,1000.67 "/>
<path clip-path="url(#clip210)" d="M459.643 1072.92 L446.448 1038.36 L451.333 1038.36 L462.282 1067.46 L473.254 1038.36 L478.115 1038.36 L464.944 1072.92 L459.643 1072.92 Z" fill="#000000" fill-rule="nonzero" fill-opacity="1" /><path clip-path="url(#clip210)" d="M491.078 1059.89 Q485.916 1059.89 483.925 1061.07 Q481.934 1062.25 481.934 1065.1 Q481.934 1067.36 483.416 1068.71 Q484.92 1070.03 487.49 1070.03 Q491.031 1070.03 493.161 1067.53 Q495.314 1065 495.314 1060.84 L495.314 1059.89 L491.078 1059.89 M499.573 1058.13 L499.573 1072.92 L495.314 1072.92 L495.314 1068.98 Q493.855 1071.35 491.68 1072.48 Q489.504 1073.59 486.355 1073.59 Q482.374 1073.59 480.013 1071.37 Q477.675 1069.12 477.675 1065.37 Q477.675 1061 480.592 1058.78 Q483.531 1056.55 489.342 1056.55 L495.314 1056.55 L495.314 1056.14 Q495.314 1053.2 493.369 1051.6 Q491.448 1049.98 487.953 1049.98 Q485.73 1049.98 483.624 1050.51 Q481.518 1051.04 479.573 1052.11 L479.573 1048.17 Q481.911 1047.27 484.11 1046.83 Q486.309 1046.37 488.393 1046.37 Q494.017 1046.37 496.795 1049.29 Q499.573 1052.2 499.573 1058.13 Z" fill="#000000" fill-rule="nonzero" fill-opacity="1" /><path clip-path="url(#clip210)" d="M523.369 1050.98 Q522.652 1050.56 521.795 1050.37 Q520.962 1050.17 519.943 1050.17 Q516.332 1050.17 514.388 1052.53 Q512.466 1054.86 512.466 1059.26 L512.466 1072.92 L508.184 1072.92 L508.184 1046.99 L512.466 1046.99 L512.466 1051.02 Q513.809 1048.66 515.962 1047.53 Q518.115 1046.37 521.193 1046.37 Q521.633 1046.37 522.165 1046.44 Q522.698 1046.48 523.346 1046.6 L523.369 1050.98 Z" fill="#000000" fill-rule="nonzero" fill-opacity="1" /><path clip-path="url(#clip210)" d="M538.624 1075.33 Q536.818 1079.96 535.105 1081.37 Q533.392 1082.78 530.522 1082.78 L527.119 1082.78 L527.119 1079.22 L529.619 1079.22 Q531.378 1079.22 532.351 1078.38 Q533.323 1077.55 534.503 1074.45 L535.267 1072.5 L524.781 1046.99 L529.295 1046.99 L537.397 1067.27 L545.499 1046.99 L550.013 1046.99 L538.624 1075.33 Z" fill="#000000" fill-rule="nonzero" fill-opacity="1" /><path clip-path="url(#clip210)" d="M555.892 1046.99 L560.151 1046.99 L560.151 1072.92 L555.892 1072.92 L555.892 1046.99 M555.892 1036.9 L560.151 1036.9 L560.151 1042.3 L555.892 1042.3 L555.892 1036.9 Z" fill="#000000" fill-rule="nonzero" fill-opacity="1" /><path clip-path="url(#clip210)" d="M590.614 1057.27 L590.614 1072.92 L586.355 1072.92 L586.355 1057.41 Q586.355 1053.73 584.92 1051.9 Q583.485 1050.07 580.614 1050.07 Q577.165 1050.07 575.174 1052.27 Q573.184 1054.47 573.184 1058.27 L573.184 1072.92 L568.901 1072.92 L568.901 1046.99 L573.184 1046.99 L573.184 1051.02 Q574.711 1048.68 576.772 1047.53 Q578.855 1046.37 581.563 1046.37 Q586.031 1046.37 588.323 1049.15 Q590.614 1051.9 590.614 1057.27 Z" fill="#000000" fill-rule="nonzero" fill-opacity="1" /><path clip-path="url(#clip210)" d="M616.17 1059.66 Q616.17 1055.03 614.248 1052.48 Q612.35 1049.93 608.901 1049.93 Q605.475 1049.93 603.554 1052.48 Q601.656 1055.03 601.656 1059.66 Q601.656 1064.26 603.554 1066.81 Q605.475 1069.36 608.901 1069.36 Q612.35 1069.36 614.248 1066.81 Q616.17 1064.26 616.17 1059.66 M620.429 1069.7 Q620.429 1076.32 617.489 1079.54 Q614.549 1082.78 608.484 1082.78 Q606.239 1082.78 604.248 1082.43 Q602.258 1082.11 600.383 1081.42 L600.383 1077.27 Q602.258 1078.29 604.086 1078.78 Q605.915 1079.26 607.813 1079.26 Q612.003 1079.26 614.086 1077.06 Q616.17 1074.89 616.17 1070.47 L616.17 1068.36 Q614.85 1070.65 612.79 1071.79 Q610.73 1072.92 607.859 1072.92 Q603.091 1072.92 600.174 1069.29 Q597.258 1065.65 597.258 1059.66 Q597.258 1053.64 600.174 1050 Q603.091 1046.37 607.859 1046.37 Q610.73 1046.37 612.79 1047.5 Q614.85 1048.64 616.17 1050.93 L616.17 1046.99 L620.429 1046.99 L620.429 1069.7 Z" fill="#000000" fill-rule="nonzero" fill-opacity="1" /><path clip-path="url(#clip210)" d="M644.456 1038.36 L649.132 1038.36 L649.132 1068.98 L665.961 1068.98 L665.961 1072.92 L644.456 1072.92 L644.456 1038.36 Z" fill="#000000" fill-rule="nonzero" fill-opacity="1" /><path clip-path="url(#clip210)" d="M1200.75 1072.92 L1187.56 1038.36 L1192.44 1038.36 L1203.39 1067.46 L1214.36 1038.36 L1219.22 1038.36 L1206.05 1072.92 L1200.75 1072.92 Z" fill="#000000" fill-rule="nonzero" fill-opacity="1" /><path clip-path="url(#clip210)" d="M1232.19 1059.89 Q1227.03 1059.89 1225.04 1061.07 Q1223.04 1062.25 1223.04 1065.1 Q1223.04 1067.36 1224.53 1068.71 Q1226.03 1070.03 1228.6 1070.03 Q1232.14 1070.03 1234.27 1067.53 Q1236.42 1065 1236.42 1060.84 L1236.42 1059.89 L1232.19 1059.89 M1240.68 1058.13 L1240.68 1072.92 L1236.42 1072.92 L1236.42 1068.98 Q1234.97 1071.35 1232.79 1072.48 Q1230.61 1073.59 1227.47 1073.59 Q1223.48 1073.59 1221.12 1071.37 Q1218.79 1069.12 1218.79 1065.37 Q1218.79 1061 1221.7 1058.78 Q1224.64 1056.55 1230.45 1056.55 L1236.42 1056.55 L1236.42 1056.14 Q1236.42 1053.2 1234.48 1051.6 Q1232.56 1049.98 1229.06 1049.98 Q1226.84 1049.98 1224.73 1050.51 Q1222.63 1051.04 1220.68 1052.11 L1220.68 1048.17 Q1223.02 1047.27 1225.22 1046.83 Q1227.42 1046.37 1229.5 1046.37 Q1235.13 1046.37 1237.91 1049.29 Q1240.68 1052.2 1240.68 1058.13 Z" fill="#000000" fill-rule="nonzero" fill-opacity="1" /><path clip-path="url(#clip210)" d="M1264.48 1050.98 Q1263.76 1050.56 1262.91 1050.37 Q1262.07 1050.17 1261.05 1050.17 Q1257.44 1050.17 1255.5 1052.53 Q1253.58 1054.86 1253.58 1059.26 L1253.58 1072.92 L1249.29 1072.92 L1249.29 1046.99 L1253.58 1046.99 L1253.58 1051.02 Q1254.92 1048.66 1257.07 1047.53 Q1259.22 1046.37 1262.3 1046.37 Q1262.74 1046.37 1263.28 1046.44 Q1263.81 1046.48 1264.46 1046.6 L1264.48 1050.98 Z" fill="#000000" fill-rule="nonzero" fill-opacity="1" /><path clip-path="url(#clip210)" d="M1279.73 1075.33 Q1277.93 1079.96 1276.22 1081.37 Q1274.5 1082.78 1271.63 1082.78 L1268.23 1082.78 L1268.23 1079.22 L1270.73 1079.22 Q1272.49 1079.22 1273.46 1078.38 Q1274.43 1077.55 1275.61 1074.45 L1276.38 1072.5 L1265.89 1046.99 L1270.41 1046.99 L1278.51 1067.27 L1286.61 1046.99 L1291.12 1046.99 L1279.73 1075.33 Z" fill="#000000" fill-rule="nonzero" fill-opacity="1" /><path clip-path="url(#clip210)" d="M1297 1046.99 L1301.26 1046.99 L1301.26 1072.92 L1297 1072.92 L1297 1046.99 M1297 1036.9 L1301.26 1036.9 L1301.26 1042.3 L1297 1042.3 L1297 1036.9 Z" fill="#000000" fill-rule="nonzero" fill-opacity="1" /><path clip-path="url(#clip210)" d="M1331.72 1057.27 L1331.72 1072.92 L1327.47 1072.92 L1327.47 1057.41 Q1327.47 1053.73 1326.03 1051.9 Q1324.59 1050.07 1321.72 1050.07 Q1318.28 1050.07 1316.28 1052.27 Q1314.29 1054.47 1314.29 1058.27 L1314.29 1072.92 L1310.01 1072.92 L1310.01 1046.99 L1314.29 1046.99 L1314.29 1051.02 Q1315.82 1048.68 1317.88 1047.53 Q1319.97 1046.37 1322.67 1046.37 Q1327.14 1046.37 1329.43 1049.15 Q1331.72 1051.9 1331.72 1057.27 Z" fill="#000000" fill-rule="nonzero" fill-opacity="1" /><path clip-path="url(#clip210)" d="M1357.28 1059.66 Q1357.28 1055.03 1355.36 1052.48 Q1353.46 1049.93 1350.01 1049.93 Q1346.59 1049.93 1344.66 1052.48 Q1342.77 1055.03 1342.77 1059.66 Q1342.77 1064.26 1344.66 1066.81 Q1346.59 1069.36 1350.01 1069.36 Q1353.46 1069.36 1355.36 1066.81 Q1357.28 1064.26 1357.28 1059.66 M1361.54 1069.7 Q1361.54 1076.32 1358.6 1079.54 Q1355.66 1082.78 1349.59 1082.78 Q1347.35 1082.78 1345.36 1082.43 Q1343.37 1082.11 1341.49 1081.42 L1341.49 1077.27 Q1343.37 1078.29 1345.2 1078.78 Q1347.03 1079.26 1348.92 1079.26 Q1353.11 1079.26 1355.2 1077.06 Q1357.28 1074.89 1357.28 1070.47 L1357.28 1068.36 Q1355.96 1070.65 1353.9 1071.79 Q1351.84 1072.92 1348.97 1072.92 Q1344.2 1072.92 1341.28 1069.29 Q1338.37 1065.65 1338.37 1059.66 Q1338.37 1053.64 1341.28 1050 Q1344.2 1046.37 1348.97 1046.37 Q1351.84 1046.37 1353.9 1047.5 Q1355.96 1048.64 1357.28 1050.93 L1357.28 1046.99 L1361.54 1046.99 L1361.54 1069.7 Z" fill="#000000" fill-rule="nonzero" fill-opacity="1" /><path clip-path="url(#clip210)" d="M1389.27 1051.07 L1394.94 1067.09 L1403.04 1046.99 L1407.56 1046.99 L1397.07 1072.92 L1397.07 1082.78 L1392.81 1082.78 L1392.81 1072.92 L1386.01 1053.57 Q1384.99 1050.65 1382.79 1050.65 L1381.65 1050.65 L1381.65 1046.99 L1383.28 1046.99 Q1387.84 1046.99 1389.27 1051.07 Z" fill="#000000" fill-rule="nonzero" fill-opacity="1" /><path clip-path="url(#clip210)" d="M818.754 1102.26 L828.334 1102.26 L840.461 1134.6 L852.651 1102.26 L862.232 1102.26 L862.232 1149.78 L855.962 1149.78 L855.962 1108.06 L843.708 1140.65 L837.246 1140.65 L824.992 1108.06 L824.992 1149.78 L818.754 1149.78 L818.754 1102.26 Z" fill="#000000" fill-rule="nonzero" fill-opacity="1" /><path clip-path="url(#clip210)" d="M905.232 1130.5 L905.232 1133.36 L878.305 1133.36 Q878.687 1139.41 881.934 1142.59 Q885.212 1145.74 891.037 1145.74 Q894.41 1145.74 897.561 1144.91 Q900.744 1144.09 903.863 1142.43 L903.863 1147.97 Q900.712 1149.31 897.402 1150.01 Q894.092 1150.71 890.686 1150.71 Q882.156 1150.71 877.159 1145.74 Q872.194 1140.78 872.194 1132.31 Q872.194 1123.56 876.905 1118.43 Q881.647 1113.28 889.668 1113.28 Q896.861 1113.28 901.031 1117.92 Q905.232 1122.54 905.232 1130.5 M899.376 1128.78 Q899.312 1123.97 896.67 1121.11 Q894.06 1118.24 889.732 1118.24 Q884.83 1118.24 881.87 1121.01 Q878.942 1123.78 878.496 1128.81 L899.376 1128.78 Z" fill="#000000" fill-rule="nonzero" fill-opacity="1" /><path clip-path="url(#clip210)" d="M920.637 1104.01 L920.637 1114.14 L932.7 1114.14 L932.7 1118.69 L920.637 1118.69 L920.637 1138.04 Q920.637 1142.4 921.815 1143.64 Q923.024 1144.88 926.685 1144.88 L932.7 1144.88 L932.7 1149.78 L926.685 1149.78 Q919.905 1149.78 917.327 1147.27 Q914.749 1144.72 914.749 1138.04 L914.749 1118.69 L910.452 1118.69 L910.452 1114.14 L914.749 1114.14 L914.749 1104.01 L920.637 1104.01 Z" fill="#000000" fill-rule="nonzero" fill-opacity="1" /><path clip-path="url(#clip210)" d="M970.035 1128.27 L970.035 1149.78 L964.179 1149.78 L964.179 1128.46 Q964.179 1123.4 962.205 1120.88 Q960.232 1118.37 956.285 1118.37 Q951.543 1118.37 948.805 1121.39 Q946.068 1124.42 946.068 1129.64 L946.068 1149.78 L940.18 1149.78 L940.18 1100.26 L946.068 1100.26 L946.068 1119.67 Q948.169 1116.46 951.002 1114.87 Q953.866 1113.28 957.59 1113.28 Q963.733 1113.28 966.884 1117.1 Q970.035 1120.88 970.035 1128.27 Z" fill="#000000" fill-rule="nonzero" fill-opacity="1" /><path clip-path="url(#clip210)" d="M995.53 1118.24 Q990.819 1118.24 988.082 1121.93 Q985.344 1125.59 985.344 1131.99 Q985.344 1138.39 988.05 1142.08 Q990.787 1145.74 995.53 1145.74 Q1000.21 1145.74 1002.95 1142.05 Q1005.68 1138.36 1005.68 1131.99 Q1005.68 1125.66 1002.95 1121.97 Q1000.21 1118.24 995.53 1118.24 M995.53 1113.28 Q1003.17 1113.28 1007.53 1118.24 Q1011.89 1123.21 1011.89 1131.99 Q1011.89 1140.74 1007.53 1145.74 Q1003.17 1150.71 995.53 1150.71 Q987.859 1150.71 983.498 1145.74 Q979.17 1140.74 979.17 1131.99 Q979.17 1123.21 983.498 1118.24 Q987.859 1113.28 995.53 1113.28 Z" fill="#000000" fill-rule="nonzero" fill-opacity="1" /><path clip-path="url(#clip210)" d="M1045.05 1119.55 L1045.05 1100.26 L1050.91 1100.26 L1050.91 1149.78 L1045.05 1149.78 L1045.05 1144.44 Q1043.21 1147.62 1040.38 1149.18 Q1037.58 1150.71 1033.63 1150.71 Q1027.17 1150.71 1023.09 1145.55 Q1019.05 1140.39 1019.05 1131.99 Q1019.05 1123.59 1023.09 1118.43 Q1027.17 1113.28 1033.63 1113.28 Q1037.58 1113.28 1040.38 1114.84 Q1043.21 1116.36 1045.05 1119.55 M1025.1 1131.99 Q1025.1 1138.45 1027.74 1142.14 Q1030.41 1145.81 1035.06 1145.81 Q1039.71 1145.81 1042.38 1142.14 Q1045.05 1138.45 1045.05 1131.99 Q1045.05 1125.53 1042.38 1121.87 Q1039.71 1118.18 1035.06 1118.18 Q1030.41 1118.18 1027.74 1121.87 Q1025.1 1125.53 1025.1 1131.99 Z" fill="#000000" fill-rule="nonzero" fill-opacity="1" /><polyline clip-path="url(#clip210)" style="stroke:#000000; stroke-linecap:round; stroke-linejoin:round; stroke-width:4; stroke-opacity:1; fill:none" points="316.909,1016.92 316.909,183.247 "/>
<polyline clip-path="url(#clip210)" style="stroke:#000000; stroke-linecap:round; stroke-linejoin:round; stroke-width:4; stroke-opacity:1; fill:none" points="316.909,933.553 335.807,933.553 "/>
<polyline clip-path="url(#clip210)" style="stroke:#000000; stroke-linecap:round; stroke-linejoin:round; stroke-width:4; stroke-opacity:1; fill:none" points="316.909,766.818 335.807,766.818 "/>
<polyline clip-path="url(#clip210)" style="stroke:#000000; stroke-linecap:round; stroke-linejoin:round; stroke-width:4; stroke-opacity:1; fill:none" points="316.909,600.083 335.807,600.083 "/>
<polyline clip-path="url(#clip210)" style="stroke:#000000; stroke-linecap:round; stroke-linejoin:round; stroke-width:4; stroke-opacity:1; fill:none" points="316.909,433.349 335.807,433.349 "/>
<polyline clip-path="url(#clip210)" style="stroke:#000000; stroke-linecap:round; stroke-linejoin:round; stroke-width:4; stroke-opacity:1; fill:none" points="316.909,266.614 335.807,266.614 "/>
<path clip-path="url(#clip210)" d="M187.563 934.004 L217.238 934.004 L217.238 937.939 L187.563 937.939 L187.563 934.004 Z" fill="#000000" fill-rule="nonzero" fill-opacity="1" /><path clip-path="url(#clip210)" d="M237.331 919.351 Q233.72 919.351 231.891 922.916 Q230.086 926.458 230.086 933.587 Q230.086 940.694 231.891 944.258 Q233.72 947.8 237.331 947.8 Q240.965 947.8 242.771 944.258 Q244.599 940.694 244.599 933.587 Q244.599 926.458 242.771 922.916 Q240.965 919.351 237.331 919.351 M237.331 915.648 Q243.141 915.648 246.197 920.254 Q249.275 924.837 249.275 933.587 Q249.275 942.314 246.197 946.921 Q243.141 951.504 237.331 951.504 Q231.521 951.504 228.442 946.921 Q225.387 942.314 225.387 933.587 Q225.387 924.837 228.442 920.254 Q231.521 915.648 237.331 915.648 Z" fill="#000000" fill-rule="nonzero" fill-opacity="1" /><path clip-path="url(#clip210)" d="M257.493 944.953 L262.377 944.953 L262.377 950.833 L257.493 950.833 L257.493 944.953 Z" fill="#000000" fill-rule="nonzero" fill-opacity="1" /><path clip-path="url(#clip210)" d="M276.59 946.897 L292.909 946.897 L292.909 950.833 L270.965 950.833 L270.965 946.897 Q273.627 944.143 278.21 939.513 Q282.817 934.86 283.997 933.518 Q286.243 930.995 287.122 929.259 Q288.025 927.499 288.025 925.81 Q288.025 923.055 286.081 921.319 Q284.159 919.583 281.058 919.583 Q278.858 919.583 276.405 920.347 Q273.974 921.11 271.196 922.661 L271.196 917.939 Q274.021 916.805 276.474 916.226 Q278.928 915.648 280.965 915.648 Q286.335 915.648 289.53 918.333 Q292.724 921.018 292.724 925.509 Q292.724 927.638 291.914 929.559 Q291.127 931.458 289.02 934.05 Q288.442 934.721 285.34 937.939 Q282.238 941.133 276.59 946.897 Z" fill="#000000" fill-rule="nonzero" fill-opacity="1" /><path clip-path="url(#clip210)" d="M187.192 767.269 L216.868 767.269 L216.868 771.204 L187.192 771.204 L187.192 767.269 Z" fill="#000000" fill-rule="nonzero" fill-opacity="1" /><path clip-path="url(#clip210)" d="M236.961 752.617 Q233.349 752.617 231.521 756.181 Q229.715 759.723 229.715 766.853 Q229.715 773.959 231.521 777.524 Q233.349 781.065 236.961 781.065 Q240.595 781.065 242.4 777.524 Q244.229 773.959 244.229 766.853 Q244.229 759.723 242.4 756.181 Q240.595 752.617 236.961 752.617 M236.961 748.913 Q242.771 748.913 245.826 753.519 Q248.905 758.103 248.905 766.853 Q248.905 775.579 245.826 780.186 Q242.771 784.769 236.961 784.769 Q231.15 784.769 228.072 780.186 Q225.016 775.579 225.016 766.853 Q225.016 758.103 228.072 753.519 Q231.15 748.913 236.961 748.913 Z" fill="#000000" fill-rule="nonzero" fill-opacity="1" /><path clip-path="url(#clip210)" d="M257.122 778.218 L262.007 778.218 L262.007 784.098 L257.122 784.098 L257.122 778.218 Z" fill="#000000" fill-rule="nonzero" fill-opacity="1" /><path clip-path="url(#clip210)" d="M273.002 780.163 L280.641 780.163 L280.641 753.797 L272.331 755.464 L272.331 751.205 L280.595 749.538 L285.27 749.538 L285.27 780.163 L292.909 780.163 L292.909 784.098 L273.002 784.098 L273.002 780.163 Z" fill="#000000" fill-rule="nonzero" fill-opacity="1" /><path clip-path="url(#clip210)" d="M235.734 585.882 Q232.123 585.882 230.294 589.447 Q228.488 592.988 228.488 600.118 Q228.488 607.224 230.294 610.789 Q232.123 614.331 235.734 614.331 Q239.368 614.331 241.173 610.789 Q243.002 607.224 243.002 600.118 Q243.002 592.988 241.173 589.447 Q239.368 585.882 235.734 585.882 M235.734 582.178 Q241.544 582.178 244.599 586.785 Q247.678 591.368 247.678 600.118 Q247.678 608.845 244.599 613.451 Q241.544 618.035 235.734 618.035 Q229.924 618.035 226.845 613.451 Q223.789 608.845 223.789 600.118 Q223.789 591.368 226.845 586.785 Q229.924 582.178 235.734 582.178 Z" fill="#000000" fill-rule="nonzero" fill-opacity="1" /><path clip-path="url(#clip210)" d="M255.896 611.484 L260.78 611.484 L260.78 617.363 L255.896 617.363 L255.896 611.484 Z" fill="#000000" fill-rule="nonzero" fill-opacity="1" /><path clip-path="url(#clip210)" d="M280.965 585.882 Q277.354 585.882 275.525 589.447 Q273.72 592.988 273.72 600.118 Q273.72 607.224 275.525 610.789 Q277.354 614.331 280.965 614.331 Q284.599 614.331 286.405 610.789 Q288.233 607.224 288.233 600.118 Q288.233 592.988 286.405 589.447 Q284.599 585.882 280.965 585.882 M280.965 582.178 Q286.775 582.178 289.831 586.785 Q292.909 591.368 292.909 600.118 Q292.909 608.845 289.831 613.451 Q286.775 618.035 280.965 618.035 Q275.155 618.035 272.076 613.451 Q269.021 608.845 269.021 600.118 Q269.021 591.368 272.076 586.785 Q275.155 582.178 280.965 582.178 Z" fill="#000000" fill-rule="nonzero" fill-opacity="1" /><path clip-path="url(#clip210)" d="M236.961 419.147 Q233.349 419.147 231.521 422.712 Q229.715 426.254 229.715 433.383 Q229.715 440.49 231.521 444.055 Q233.349 447.596 236.961 447.596 Q240.595 447.596 242.4 444.055 Q244.229 440.49 244.229 433.383 Q244.229 426.254 242.4 422.712 Q240.595 419.147 236.961 419.147 M236.961 415.444 Q242.771 415.444 245.826 420.05 Q248.905 424.633 248.905 433.383 Q248.905 442.11 245.826 446.717 Q242.771 451.3 236.961 451.3 Q231.15 451.3 228.072 446.717 Q225.016 442.11 225.016 433.383 Q225.016 424.633 228.072 420.05 Q231.15 415.444 236.961 415.444 Z" fill="#000000" fill-rule="nonzero" fill-opacity="1" /><path clip-path="url(#clip210)" d="M257.122 444.749 L262.007 444.749 L262.007 450.629 L257.122 450.629 L257.122 444.749 Z" fill="#000000" fill-rule="nonzero" fill-opacity="1" /><path clip-path="url(#clip210)" d="M273.002 446.693 L280.641 446.693 L280.641 420.328 L272.331 421.994 L272.331 417.735 L280.595 416.069 L285.27 416.069 L285.27 446.693 L292.909 446.693 L292.909 450.629 L273.002 450.629 L273.002 446.693 Z" fill="#000000" fill-rule="nonzero" fill-opacity="1" /><path clip-path="url(#clip210)" d="M237.331 252.413 Q233.72 252.413 231.891 255.977 Q230.086 259.519 230.086 266.649 Q230.086 273.755 231.891 277.32 Q233.72 280.862 237.331 280.862 Q240.965 280.862 242.771 277.32 Q244.599 273.755 244.599 266.649 Q244.599 259.519 242.771 255.977 Q240.965 252.413 237.331 252.413 M237.331 248.709 Q243.141 248.709 246.197 253.315 Q249.275 257.899 249.275 266.649 Q249.275 275.375 246.197 279.982 Q243.141 284.565 237.331 284.565 Q231.521 284.565 228.442 279.982 Q225.387 275.375 225.387 266.649 Q225.387 257.899 228.442 253.315 Q231.521 248.709 237.331 248.709 Z" fill="#000000" fill-rule="nonzero" fill-opacity="1" /><path clip-path="url(#clip210)" d="M257.493 278.014 L262.377 278.014 L262.377 283.894 L257.493 283.894 L257.493 278.014 Z" fill="#000000" fill-rule="nonzero" fill-opacity="1" /><path clip-path="url(#clip210)" d="M276.59 279.959 L292.909 279.959 L292.909 283.894 L270.965 283.894 L270.965 279.959 Q273.627 277.204 278.21 272.575 Q282.817 267.922 283.997 266.579 Q286.243 264.056 287.122 262.32 Q288.025 260.561 288.025 258.871 Q288.025 256.116 286.081 254.38 Q284.159 252.644 281.058 252.644 Q278.858 252.644 276.405 253.408 Q273.974 254.172 271.196 255.723 L271.196 251.001 Q274.021 249.866 276.474 249.288 Q278.928 248.709 280.965 248.709 Q286.335 248.709 289.53 251.394 Q292.724 254.079 292.724 258.57 Q292.724 260.7 291.914 262.621 Q291.127 264.519 289.02 267.112 Q288.442 267.783 285.34 271 Q282.238 274.195 276.59 279.959 Z" fill="#000000" fill-rule="nonzero" fill-opacity="1" /><path clip-path="url(#clip210)" d="M107.75 843.094 L143.589 856.144 L143.589 830.013 L107.75 843.094 M148.936 864.865 L101.416 846.723 L101.416 839.434 L148.936 821.323 L148.936 864.865 Z" fill="#000000" fill-rule="nonzero" fill-opacity="1" /><path clip-path="url(#clip210)" d="M101.416 814.385 L101.416 807.955 L120.895 807.955 L120.895 784.593 L101.416 784.593 L101.416 778.164 L148.936 778.164 L148.936 784.593 L126.306 784.593 L126.306 807.955 L148.936 807.955 L148.936 814.385 L101.416 814.385 Z" fill="#000000" fill-rule="nonzero" fill-opacity="1" /><path clip-path="url(#clip210)" d="M119.336 744.139 L119.336 703.335 L124.683 703.335 L124.683 744.139 L119.336 744.139 M132.322 744.139 L132.322 703.335 L137.733 703.335 L137.733 744.139 L132.322 744.139 Z" fill="#000000" fill-rule="nonzero" fill-opacity="1" /><path clip-path="url(#clip210)" d="M101.416 669.31 L101.416 662.881 L120.895 662.881 L120.895 639.519 L101.416 639.519 L101.416 633.089 L148.936 633.089 L148.936 639.519 L126.306 639.519 L126.306 662.881 L148.936 662.881 L148.936 669.31 L101.416 669.31 Z" fill="#000000" fill-rule="nonzero" fill-opacity="1" /><path clip-path="url(#clip210)" d="M99.4747 606.481 Q106.795 610.746 113.957 612.815 Q121.118 614.883 128.471 614.883 Q135.823 614.883 143.048 612.815 Q150.241 610.714 157.53 606.481 L157.53 611.573 Q150.05 616.348 142.825 618.735 Q135.6 621.09 128.471 621.09 Q121.373 621.09 114.18 618.735 Q106.986 616.379 99.4747 611.573 L99.4747 606.481 Z" fill="#000000" fill-rule="nonzero" fill-opacity="1" /><path clip-path="url(#clip210)" d="M101.416 601.452 L101.416 561.252 L106.827 561.252 L106.827 578.122 L148.936 578.122 L148.936 584.583 L106.827 584.583 L106.827 601.452 L101.416 601.452 Z" fill="#000000" fill-rule="nonzero" fill-opacity="1" /><path clip-path="url(#clip210)" d="M99.4747 556.224 L99.4747 551.131 Q106.986 546.357 114.18 544.001 Q121.373 541.614 128.471 541.614 Q135.6 541.614 142.825 544.001 Q150.05 546.357 157.53 551.131 L157.53 556.224 Q150.241 551.99 143.048 549.921 Q135.823 547.821 128.471 547.821 Q121.118 547.821 113.957 549.921 Q106.795 551.99 99.4747 556.224 Z" fill="#000000" fill-rule="nonzero" fill-opacity="1" /><path clip-path="url(#clip210)" d="M128.471 512.109 L128.471 494.954 L133.69 494.954 L133.69 512.109 L128.471 512.109 Z" fill="#000000" fill-rule="nonzero" fill-opacity="1" /><path clip-path="url(#clip210)" d="M101.416 464.653 L101.416 458.223 L120.895 458.223 L120.895 434.861 L101.416 434.861 L101.416 428.432 L148.936 428.432 L148.936 434.861 L126.306 434.861 L126.306 458.223 L148.936 458.223 L148.936 464.653 L101.416 464.653 Z" fill="#000000" fill-rule="nonzero" fill-opacity="1" /><path clip-path="url(#clip210)" d="M99.4747 401.823 Q106.795 406.088 113.957 408.157 Q121.118 410.226 128.471 410.226 Q135.823 410.226 143.048 408.157 Q150.241 406.056 157.53 401.823 L157.53 406.916 Q150.05 411.69 142.825 414.077 Q135.6 416.433 128.471 416.433 Q121.373 416.433 114.18 414.077 Q106.986 411.722 99.4747 406.916 L99.4747 401.823 Z" fill="#000000" fill-rule="nonzero" fill-opacity="1" /><path clip-path="url(#clip210)" d="M105.649 375.883 Q105.649 380.848 110.551 383.363 Q115.421 385.845 125.224 385.845 Q134.995 385.845 139.897 383.363 Q144.767 380.848 144.767 375.883 Q144.767 370.886 139.897 368.403 Q134.995 365.889 125.224 365.889 Q115.421 365.889 110.551 368.403 Q105.649 370.886 105.649 375.883 M100.557 375.883 Q100.557 367.894 106.891 363.693 Q113.193 359.46 125.224 359.46 Q137.223 359.46 143.557 363.693 Q149.859 367.894 149.859 375.883 Q149.859 383.872 143.557 388.105 Q137.223 392.307 125.224 392.307 Q113.193 392.307 106.891 388.105 Q100.557 383.872 100.557 375.883 Z" fill="#000000" fill-rule="nonzero" fill-opacity="1" /><path clip-path="url(#clip210)" d="M99.4747 349.911 L99.4747 344.818 Q106.986 340.044 114.18 337.689 Q121.373 335.302 128.471 335.302 Q135.6 335.302 142.825 337.689 Q150.05 340.044 157.53 344.818 L157.53 349.911 Q150.241 345.678 143.048 343.609 Q135.823 341.508 128.471 341.508 Q121.118 341.508 113.957 343.609 Q106.795 345.678 99.4747 349.911 Z" fill="#000000" fill-rule="nonzero" fill-opacity="1" /><path clip-path="url(#clip212)" d="M563.867 617.319 L457.876 617.319 L669.857 617.319 L563.867 617.319 L563.867 608.932 L563.867 617.319  Z" fill="#009af9" fill-rule="evenodd" fill-opacity="1"/>
<polyline clip-path="url(#clip212)" style="stroke:#000000; stroke-linecap:round; stroke-linejoin:round; stroke-width:2; stroke-opacity:1; fill:none" points="563.867,617.319 457.876,617.319 669.857,617.319 563.867,617.319 563.867,608.932 563.867,617.319 "/>
<path clip-path="url(#clip212)" d="M775.847 608.932 L775.847 600.085 L351.886 600.085 L351.886 608.932 L775.847 608.932 L775.847 600.085 L775.847 608.932  Z" fill="#009af9" fill-rule="evenodd" fill-opacity="1"/>
<polyline clip-path="url(#clip212)" style="stroke:#000000; stroke-linecap:round; stroke-linejoin:round; stroke-width:2; stroke-opacity:1; fill:none" points="775.847,608.932 775.847,600.085 351.886,600.085 351.886,608.932 775.847,608.932 775.847,600.085 775.847,608.932 "/>
<path clip-path="url(#clip212)" d="M775.847 596.529 L351.886 596.529 L351.886 600.085 L775.847 600.085 L775.847 596.529 L563.867 596.529 L775.847 596.529  Z" fill="#009af9" fill-rule="evenodd" fill-opacity="1"/>
<polyline clip-path="url(#clip212)" style="stroke:#000000; stroke-linecap:round; stroke-linejoin:round; stroke-width:2; stroke-opacity:1; fill:none" points="775.847,596.529 351.886,596.529 351.886,600.085 775.847,600.085 775.847,596.529 563.867,596.529 775.847,596.529 "/>
<path clip-path="url(#clip212)" d="M563.867 577.998 L457.876 577.998 L669.857 577.998 L563.867 577.998 L563.867 596.529 L563.867 577.998  Z" fill="#009af9" fill-rule="evenodd" fill-opacity="1"/>
<polyline clip-path="url(#clip212)" style="stroke:#000000; stroke-linecap:round; stroke-linejoin:round; stroke-width:2; stroke-opacity:1; fill:none" points="563.867,577.998 457.876,577.998 669.857,577.998 563.867,577.998 563.867,596.529 563.867,577.998 "/>
<circle clip-path="url(#clip212)" cx="563.867" cy="639.722" r="14.4" fill="#009af9" fill-rule="evenodd" fill-opacity="0.2" stroke="#ff3030" stroke-opacity="0.2" stroke-width="1.2"/>
<circle clip-path="url(#clip212)" cx="563.867" cy="647.367" r="14.4" fill="#009af9" fill-rule="evenodd" fill-opacity="0.2" stroke="#ff3030" stroke-opacity="0.2" stroke-width="1.2"/>
<circle clip-path="url(#clip212)" cx="563.867" cy="640.598" r="14.4" fill="#009af9" fill-rule="evenodd" fill-opacity="0.2" stroke="#ff3030" stroke-opacity="0.2" stroke-width="1.2"/>
<circle clip-path="url(#clip212)" cx="563.867" cy="633.958" r="14.4" fill="#009af9" fill-rule="evenodd" fill-opacity="0.2" stroke="#ff3030" stroke-opacity="0.2" stroke-width="1.2"/>
<circle clip-path="url(#clip212)" cx="563.867" cy="573.293" r="14.4" fill="#009af9" fill-rule="evenodd" fill-opacity="0.2" stroke="#ff3030" stroke-opacity="0.2" stroke-width="1.2"/>
<circle clip-path="url(#clip212)" cx="563.867" cy="574.182" r="14.4" fill="#009af9" fill-rule="evenodd" fill-opacity="0.2" stroke="#ff3030" stroke-opacity="0.2" stroke-width="1.2"/>
<circle clip-path="url(#clip212)" cx="563.867" cy="683.028" r="14.4" fill="#009af9" fill-rule="evenodd" fill-opacity="0.2" stroke="#ff3030" stroke-opacity="0.2" stroke-width="1.2"/>
<circle clip-path="url(#clip212)" cx="563.867" cy="569.741" r="14.4" fill="#009af9" fill-rule="evenodd" fill-opacity="0.2" stroke="#ff3030" stroke-opacity="0.2" stroke-width="1.2"/>
<circle clip-path="url(#clip212)" cx="563.867" cy="726.021" r="14.4" fill="#009af9" fill-rule="evenodd" fill-opacity="0.2" stroke="#ff3030" stroke-opacity="0.2" stroke-width="1.2"/>
<circle clip-path="url(#clip212)" cx="563.867" cy="837.837" r="14.4" fill="#009af9" fill-rule="evenodd" fill-opacity="0.2" stroke="#ff3030" stroke-opacity="0.2" stroke-width="1.2"/>
<circle clip-path="url(#clip212)" cx="563.867" cy="562.827" r="14.4" fill="#009af9" fill-rule="evenodd" fill-opacity="0.2" stroke="#ff3030" stroke-opacity="0.2" stroke-width="1.2"/>
<circle clip-path="url(#clip212)" cx="563.867" cy="566.735" r="14.4" fill="#009af9" fill-rule="evenodd" fill-opacity="0.2" stroke="#ff3030" stroke-opacity="0.2" stroke-width="1.2"/>
<circle clip-path="url(#clip212)" cx="563.867" cy="762.957" r="14.4" fill="#009af9" fill-rule="evenodd" fill-opacity="0.2" stroke="#ff3030" stroke-opacity="0.2" stroke-width="1.2"/>
<circle clip-path="url(#clip212)" cx="563.867" cy="382.252" r="14.4" fill="#009af9" fill-rule="evenodd" fill-opacity="0.2" stroke="#ff3030" stroke-opacity="0.2" stroke-width="1.2"/>
<circle clip-path="url(#clip212)" cx="563.867" cy="786.123" r="14.4" fill="#009af9" fill-rule="evenodd" fill-opacity="0.2" stroke="#ff3030" stroke-opacity="0.2" stroke-width="1.2"/>
<circle clip-path="url(#clip212)" cx="563.867" cy="803.856" r="14.4" fill="#009af9" fill-rule="evenodd" fill-opacity="0.2" stroke="#ff3030" stroke-opacity="0.2" stroke-width="1.2"/>
<circle clip-path="url(#clip212)" cx="563.867" cy="630.386" r="14.4" fill="#009af9" fill-rule="evenodd" fill-opacity="0.2" stroke="#ff3030" stroke-opacity="0.2" stroke-width="1.2"/>
<circle clip-path="url(#clip212)" cx="563.867" cy="531.813" r="14.4" fill="#009af9" fill-rule="evenodd" fill-opacity="0.2" stroke="#ff3030" stroke-opacity="0.2" stroke-width="1.2"/>
<circle clip-path="url(#clip212)" cx="563.867" cy="494.401" r="14.4" fill="#009af9" fill-rule="evenodd" fill-opacity="0.2" stroke="#ff3030" stroke-opacity="0.2" stroke-width="1.2"/>
<circle clip-path="url(#clip212)" cx="563.867" cy="644.571" r="14.4" fill="#009af9" fill-rule="evenodd" fill-opacity="0.2" stroke="#ff3030" stroke-opacity="0.2" stroke-width="1.2"/>
<circle clip-path="url(#clip212)" cx="563.867" cy="562.777" r="14.4" fill="#009af9" fill-rule="evenodd" fill-opacity="0.2" stroke="#ff3030" stroke-opacity="0.2" stroke-width="1.2"/>
<circle clip-path="url(#clip212)" cx="563.867" cy="728.479" r="14.4" fill="#009af9" fill-rule="evenodd" fill-opacity="0.2" stroke="#ff3030" stroke-opacity="0.2" stroke-width="1.2"/>
<circle clip-path="url(#clip212)" cx="563.867" cy="833.904" r="14.4" fill="#009af9" fill-rule="evenodd" fill-opacity="0.2" stroke="#ff3030" stroke-opacity="0.2" stroke-width="1.2"/>
<circle clip-path="url(#clip212)" cx="563.867" cy="631.81" r="14.4" fill="#009af9" fill-rule="evenodd" fill-opacity="0.2" stroke="#ff3030" stroke-opacity="0.2" stroke-width="1.2"/>
<circle clip-path="url(#clip212)" cx="563.867" cy="633.065" r="14.4" fill="#009af9" fill-rule="evenodd" fill-opacity="0.2" stroke="#ff3030" stroke-opacity="0.2" stroke-width="1.2"/>
<circle clip-path="url(#clip212)" cx="563.867" cy="279.748" r="14.4" fill="#009af9" fill-rule="evenodd" fill-opacity="0.2" stroke="#ff3030" stroke-opacity="0.2" stroke-width="1.2"/>
<circle clip-path="url(#clip212)" cx="563.867" cy="575.073" r="14.4" fill="#009af9" fill-rule="evenodd" fill-opacity="0.2" stroke="#ff3030" stroke-opacity="0.2" stroke-width="1.2"/>
<polyline clip-path="url(#clip212)" style="stroke:#009af9; stroke-linecap:round; stroke-linejoin:round; stroke-width:0; stroke-opacity:1; fill:none" points="563.867,617.319 457.876,617.319 669.857,617.319 563.867,617.319 563.867,608.932 "/>
<polyline clip-path="url(#clip212)" style="stroke:#009af9; stroke-linecap:round; stroke-linejoin:round; stroke-width:0; stroke-opacity:1; fill:none" points="775.847,608.932 775.847,600.085 351.886,600.085 351.886,608.932 775.847,608.932 775.847,600.085 "/>
<polyline clip-path="url(#clip212)" style="stroke:#009af9; stroke-linecap:round; stroke-linejoin:round; stroke-width:0; stroke-opacity:1; fill:none" points="775.847,596.529 351.886,596.529 351.886,600.085 775.847,600.085 775.847,596.529 563.867,596.529 "/>
<polyline clip-path="url(#clip212)" style="stroke:#009af9; stroke-linecap:round; stroke-linejoin:round; stroke-width:0; stroke-opacity:1; fill:none" points="563.867,577.998 457.876,577.998 669.857,577.998 563.867,577.998 563.867,596.529 "/>
<path clip-path="url(#clip212)" d="M1305.8 695.581 L1199.81 695.581 L1411.79 695.581 L1305.8 695.581 L1305.8 625.105 L1305.8 695.581  Z" fill="#e26f46" fill-rule="evenodd" fill-opacity="1"/>
<polyline clip-path="url(#clip212)" style="stroke:#000000; stroke-linecap:round; stroke-linejoin:round; stroke-width:2; stroke-opacity:1; fill:none" points="1305.8,695.581 1199.81,695.581 1411.79,695.581 1305.8,695.581 1305.8,625.105 1305.8,695.581 "/>
<path clip-path="url(#clip212)" d="M1517.78 625.105 L1517.78 600.254 L1093.82 600.254 L1093.82 625.105 L1517.78 625.105 L1517.78 600.254 L1517.78 625.105  Z" fill="#e26f46" fill-rule="evenodd" fill-opacity="1"/>
<polyline clip-path="url(#clip212)" style="stroke:#000000; stroke-linecap:round; stroke-linejoin:round; stroke-width:2; stroke-opacity:1; fill:none" points="1517.78,625.105 1517.78,600.254 1093.82,600.254 1093.82,625.105 1517.78,625.105 1517.78,600.254 1517.78,625.105 "/>
<path clip-path="url(#clip212)" d="M1517.78 574.815 L1093.82 574.815 L1093.82 600.254 L1517.78 600.254 L1517.78 574.815 L1305.8 574.815 L1517.78 574.815  Z" fill="#e26f46" fill-rule="evenodd" fill-opacity="1"/>
<polyline clip-path="url(#clip212)" style="stroke:#000000; stroke-linecap:round; stroke-linejoin:round; stroke-width:2; stroke-opacity:1; fill:none" points="1517.78,574.815 1093.82,574.815 1093.82,600.254 1517.78,600.254 1517.78,574.815 1305.8,574.815 1517.78,574.815 "/>
<path clip-path="url(#clip212)" d="M1305.8 500.047 L1199.81 500.047 L1411.79 500.047 L1305.8 500.047 L1305.8 574.815 L1305.8 500.047  Z" fill="#e26f46" fill-rule="evenodd" fill-opacity="1"/>
<polyline clip-path="url(#clip212)" style="stroke:#000000; stroke-linecap:round; stroke-linejoin:round; stroke-width:2; stroke-opacity:1; fill:none" points="1305.8,500.047 1199.81,500.047 1411.79,500.047 1305.8,500.047 1305.8,574.815 1305.8,500.047 "/>
<circle clip-path="url(#clip212)" cx="1305.8" cy="730.026" r="14.4" fill="#e26f46" fill-rule="evenodd" fill-opacity="0.2" stroke="#ff3030" stroke-opacity="0.2" stroke-width="1.2"/>
<circle clip-path="url(#clip212)" cx="1305.8" cy="497.738" r="14.4" fill="#e26f46" fill-rule="evenodd" fill-opacity="0.2" stroke="#ff3030" stroke-opacity="0.2" stroke-width="1.2"/>
<circle clip-path="url(#clip212)" cx="1305.8" cy="713.773" r="14.4" fill="#e26f46" fill-rule="evenodd" fill-opacity="0.2" stroke="#ff3030" stroke-opacity="0.2" stroke-width="1.2"/>
<circle clip-path="url(#clip212)" cx="1305.8" cy="714.855" r="14.4" fill="#e26f46" fill-rule="evenodd" fill-opacity="0.2" stroke="#ff3030" stroke-opacity="0.2" stroke-width="1.2"/>
<circle clip-path="url(#clip212)" cx="1305.8" cy="754.279" r="14.4" fill="#e26f46" fill-rule="evenodd" fill-opacity="0.2" stroke="#ff3030" stroke-opacity="0.2" stroke-width="1.2"/>
<circle clip-path="url(#clip212)" cx="1305.8" cy="436.98" r="14.4" fill="#e26f46" fill-rule="evenodd" fill-opacity="0.2" stroke="#ff3030" stroke-opacity="0.2" stroke-width="1.2"/>
<circle clip-path="url(#clip212)" cx="1305.8" cy="389.633" r="14.4" fill="#e26f46" fill-rule="evenodd" fill-opacity="0.2" stroke="#ff3030" stroke-opacity="0.2" stroke-width="1.2"/>
<circle clip-path="url(#clip212)" cx="1305.8" cy="430.671" r="14.4" fill="#e26f46" fill-rule="evenodd" fill-opacity="0.2" stroke="#ff3030" stroke-opacity="0.2" stroke-width="1.2"/>
<circle clip-path="url(#clip212)" cx="1305.8" cy="875.695" r="14.4" fill="#e26f46" fill-rule="evenodd" fill-opacity="0.2" stroke="#ff3030" stroke-opacity="0.2" stroke-width="1.2"/>
<circle clip-path="url(#clip212)" cx="1305.8" cy="479.673" r="14.4" fill="#e26f46" fill-rule="evenodd" fill-opacity="0.2" stroke="#ff3030" stroke-opacity="0.2" stroke-width="1.2"/>
<circle clip-path="url(#clip212)" cx="1305.8" cy="464.973" r="14.4" fill="#e26f46" fill-rule="evenodd" fill-opacity="0.2" stroke="#ff3030" stroke-opacity="0.2" stroke-width="1.2"/>
<circle clip-path="url(#clip212)" cx="1305.8" cy="944.833" r="14.4" fill="#e26f46" fill-rule="evenodd" fill-opacity="0.2" stroke="#ff3030" stroke-opacity="0.2" stroke-width="1.2"/>
<circle clip-path="url(#clip212)" cx="1305.8" cy="421.942" r="14.4" fill="#e26f46" fill-rule="evenodd" fill-opacity="0.2" stroke="#ff3030" stroke-opacity="0.2" stroke-width="1.2"/>
<circle clip-path="url(#clip212)" cx="1305.8" cy="874.483" r="14.4" fill="#e26f46" fill-rule="evenodd" fill-opacity="0.2" stroke="#ff3030" stroke-opacity="0.2" stroke-width="1.2"/>
<circle clip-path="url(#clip212)" cx="1305.8" cy="443.878" r="14.4" fill="#e26f46" fill-rule="evenodd" fill-opacity="0.2" stroke="#ff3030" stroke-opacity="0.2" stroke-width="1.2"/>
<circle clip-path="url(#clip212)" cx="1305.8" cy="710.072" r="14.4" fill="#e26f46" fill-rule="evenodd" fill-opacity="0.2" stroke="#ff3030" stroke-opacity="0.2" stroke-width="1.2"/>
<polyline clip-path="url(#clip212)" style="stroke:#e26f46; stroke-linecap:round; stroke-linejoin:round; stroke-width:0; stroke-opacity:1; fill:none" points="1305.8,695.581 1199.81,695.581 1411.79,695.581 1305.8,695.581 1305.8,625.105 "/>
<polyline clip-path="url(#clip212)" style="stroke:#e26f46; stroke-linecap:round; stroke-linejoin:round; stroke-width:0; stroke-opacity:1; fill:none" points="1517.78,625.105 1517.78,600.254 1093.82,600.254 1093.82,625.105 1517.78,625.105 1517.78,600.254 "/>
<polyline clip-path="url(#clip212)" style="stroke:#e26f46; stroke-linecap:round; stroke-linejoin:round; stroke-width:0; stroke-opacity:1; fill:none" points="1517.78,574.815 1093.82,574.815 1093.82,600.254 1517.78,600.254 1517.78,574.815 1305.8,574.815 "/>
<polyline clip-path="url(#clip212)" style="stroke:#e26f46; stroke-linecap:round; stroke-linejoin:round; stroke-width:0; stroke-opacity:1; fill:none" points="1305.8,500.047 1199.81,500.047 1411.79,500.047 1305.8,500.047 1305.8,574.815 "/>
<path clip-path="url(#clip210)" d="M442.213 150.924 L1427.45 150.924 L1427.45 47.2441 L442.213 47.2441  Z" fill="#ffffff" fill-rule="evenodd" fill-opacity="1"/>
<polyline clip-path="url(#clip210)" style="stroke:#000000; stroke-linecap:round; stroke-linejoin:round; stroke-width:4; stroke-opacity:0; fill:none" points="442.213,150.924 1427.45,150.924 1427.45,47.2441 442.213,47.2441 442.213,150.924 "/>
<path clip-path="url(#clip210)" d="M455.945 119.82 L538.334 119.82 L538.334 78.3481 L455.945 78.3481 L455.945 119.82  Z" fill="#009af9" fill-rule="evenodd" fill-opacity="1"/>
<polyline clip-path="url(#clip210)" style="stroke:#000000; stroke-linecap:round; stroke-linejoin:round; stroke-width:2; stroke-opacity:1; fill:none" points="455.945,119.82 538.334,119.82 538.334,78.3481 455.945,78.3481 455.945,119.82 "/>
<path clip-path="url(#clip210)" d="M556.348 112.475 L556.348 126.225 L552.066 126.225 L552.066 90.4383 L556.348 90.4383 L556.348 94.3735 Q557.691 92.0587 559.728 90.9476 Q561.788 89.8133 564.635 89.8133 Q569.358 89.8133 572.297 93.5633 Q575.26 97.3133 575.26 103.424 Q575.26 109.535 572.297 113.285 Q569.358 117.035 564.635 117.035 Q561.788 117.035 559.728 115.924 Q557.691 114.79 556.348 112.475 M570.839 103.424 Q570.839 98.7253 568.895 96.0633 Q566.973 93.3781 563.594 93.3781 Q560.214 93.3781 558.27 96.0633 Q556.348 98.7253 556.348 103.424 Q556.348 108.123 558.27 110.809 Q560.214 113.471 563.594 113.471 Q566.973 113.471 568.895 110.809 Q570.839 108.123 570.839 103.424 Z" fill="#000000" fill-rule="nonzero" fill-opacity="1" /><path clip-path="url(#clip210)" d="M594.334 90.4383 L598.848 90.4383 L606.95 112.197 L615.052 90.4383 L619.566 90.4383 L609.843 116.364 L604.056 116.364 L594.334 90.4383 Z" fill="#000000" fill-rule="nonzero" fill-opacity="1" /><path clip-path="url(#clip210)" d="M637.228 103.332 Q632.066 103.332 630.075 104.512 Q628.084 105.693 628.084 108.54 Q628.084 110.809 629.566 112.151 Q631.07 113.471 633.64 113.471 Q637.181 113.471 639.311 110.971 Q641.464 108.447 641.464 104.281 L641.464 103.332 L637.228 103.332 M645.723 101.573 L645.723 116.364 L641.464 116.364 L641.464 112.429 Q640.005 114.79 637.829 115.924 Q635.654 117.035 632.505 117.035 Q628.524 117.035 626.163 114.813 Q623.825 112.568 623.825 108.818 Q623.825 104.443 626.742 102.221 Q629.681 99.9984 635.492 99.9984 L641.464 99.9984 L641.464 99.5818 Q641.464 96.642 639.519 95.0448 Q637.598 93.4244 634.103 93.4244 Q631.88 93.4244 629.774 93.9568 Q627.667 94.4892 625.723 95.554 L625.723 91.6189 Q628.061 90.7161 630.26 90.2763 Q632.459 89.8133 634.542 89.8133 Q640.167 89.8133 642.945 92.73 Q645.723 95.6466 645.723 101.573 Z" fill="#000000" fill-rule="nonzero" fill-opacity="1" /><path clip-path="url(#clip210)" d="M654.496 80.3458 L658.755 80.3458 L658.755 116.364 L654.496 116.364 L654.496 80.3458 Z" fill="#000000" fill-rule="nonzero" fill-opacity="1" /><path clip-path="url(#clip210)" d="M667.227 106.133 L667.227 90.4383 L671.487 90.4383 L671.487 105.971 Q671.487 109.651 672.922 111.503 Q674.357 113.332 677.227 113.332 Q680.676 113.332 682.667 111.133 Q684.681 108.934 684.681 105.137 L684.681 90.4383 L688.94 90.4383 L688.94 116.364 L684.681 116.364 L684.681 112.383 Q683.13 114.744 681.07 115.901 Q679.033 117.035 676.325 117.035 Q671.857 117.035 669.542 114.258 Q667.227 111.48 667.227 106.133 M677.945 89.8133 L677.945 89.8133 Z" fill="#000000" fill-rule="nonzero" fill-opacity="1" /><path clip-path="url(#clip210)" d="M719.889 102.336 L719.889 104.42 L700.306 104.42 Q700.584 108.818 702.945 111.133 Q705.329 113.424 709.565 113.424 Q712.019 113.424 714.311 112.822 Q716.625 112.221 718.894 111.017 L718.894 115.045 Q716.602 116.017 714.195 116.526 Q711.787 117.035 709.311 117.035 Q703.107 117.035 699.473 113.424 Q695.862 109.813 695.862 103.656 Q695.862 97.2901 699.287 93.5633 Q702.737 89.8133 708.57 89.8133 Q713.801 89.8133 716.834 93.1929 Q719.889 96.5494 719.889 102.336 M715.63 101.086 Q715.584 97.591 713.662 95.5077 Q711.764 93.4244 708.616 93.4244 Q705.051 93.4244 702.899 95.4383 Q700.769 97.4522 700.445 101.11 L715.63 101.086 Z" fill="#000000" fill-rule="nonzero" fill-opacity="1" /><path clip-path="url(#clip210)" d="M742.505 94.8364 L772.181 94.8364 L772.181 98.7253 L742.505 98.7253 L742.505 94.8364 M742.505 104.281 L772.181 104.281 L772.181 108.216 L742.505 108.216 L742.505 104.281 Z" fill="#000000" fill-rule="nonzero" fill-opacity="1" /><path clip-path="url(#clip210)" d="M807.342 84.8828 Q803.731 84.8828 801.903 88.4476 Q800.097 91.9892 800.097 99.1188 Q800.097 106.225 801.903 109.79 Q803.731 113.332 807.342 113.332 Q810.977 113.332 812.782 109.79 Q814.611 106.225 814.611 99.1188 Q814.611 91.9892 812.782 88.4476 Q810.977 84.8828 807.342 84.8828 M807.342 81.1791 Q813.153 81.1791 816.208 85.7856 Q819.287 90.3689 819.287 99.1188 Q819.287 107.846 816.208 112.452 Q813.153 117.035 807.342 117.035 Q801.532 117.035 798.454 112.452 Q795.398 107.846 795.398 99.1188 Q795.398 90.3689 798.454 85.7856 Q801.532 81.1791 807.342 81.1791 Z" fill="#000000" fill-rule="nonzero" fill-opacity="1" /><path clip-path="url(#clip210)" d="M827.504 110.484 L832.389 110.484 L832.389 116.364 L827.504 116.364 L827.504 110.484 Z" fill="#000000" fill-rule="nonzero" fill-opacity="1" /><path clip-path="url(#clip210)" d="M846.601 112.429 L862.921 112.429 L862.921 116.364 L840.977 116.364 L840.977 112.429 Q843.639 109.674 848.222 105.045 Q852.828 100.392 854.009 99.0494 Q856.254 96.5262 857.134 94.7901 Q858.037 93.0309 858.037 91.3411 Q858.037 88.5865 856.092 86.8504 Q854.171 85.1143 851.069 85.1143 Q848.87 85.1143 846.416 85.8781 Q843.986 86.642 841.208 88.1929 L841.208 83.4708 Q844.032 82.3365 846.486 81.7578 Q848.939 81.1791 850.976 81.1791 Q856.347 81.1791 859.541 83.8643 Q862.736 86.5494 862.736 91.0402 Q862.736 93.1698 861.925 95.0911 Q861.138 96.9892 859.032 99.5818 Q858.453 100.253 855.351 103.471 Q852.25 106.665 846.601 112.429 Z" fill="#000000" fill-rule="nonzero" fill-opacity="1" /><path clip-path="url(#clip210)" d="M871.555 81.8041 L893.777 81.8041 L893.777 83.7948 L881.231 116.364 L876.347 116.364 L888.152 85.7393 L871.555 85.7393 L871.555 81.8041 Z" fill="#000000" fill-rule="nonzero" fill-opacity="1" /><path clip-path="url(#clip210)" d="M941.698 119.82 L1024.09 119.82 L1024.09 78.3481 L941.698 78.3481 L941.698 119.82  Z" fill="#e26f46" fill-rule="evenodd" fill-opacity="1"/>
<polyline clip-path="url(#clip210)" style="stroke:#000000; stroke-linecap:round; stroke-linejoin:round; stroke-width:2; stroke-opacity:1; fill:none" points="941.698,119.82 1024.09,119.82 1024.09,78.3481 941.698,78.3481 941.698,119.82 "/>
<path clip-path="url(#clip210)" d="M1042.1 112.475 L1042.1 126.225 L1037.82 126.225 L1037.82 90.4383 L1042.1 90.4383 L1042.1 94.3735 Q1043.44 92.0587 1045.48 90.9476 Q1047.54 89.8133 1050.39 89.8133 Q1055.11 89.8133 1058.05 93.5633 Q1061.01 97.3133 1061.01 103.424 Q1061.01 109.535 1058.05 113.285 Q1055.11 117.035 1050.39 117.035 Q1047.54 117.035 1045.48 115.924 Q1043.44 114.79 1042.1 112.475 M1056.59 103.424 Q1056.59 98.7253 1054.65 96.0633 Q1052.73 93.3781 1049.35 93.3781 Q1045.97 93.3781 1044.02 96.0633 Q1042.1 98.7253 1042.1 103.424 Q1042.1 108.123 1044.02 110.809 Q1045.97 113.471 1049.35 113.471 Q1052.73 113.471 1054.65 110.809 Q1056.59 108.123 1056.59 103.424 Z" fill="#000000" fill-rule="nonzero" fill-opacity="1" /><path clip-path="url(#clip210)" d="M1080.09 90.4383 L1084.6 90.4383 L1092.7 112.197 L1100.81 90.4383 L1105.32 90.4383 L1095.6 116.364 L1089.81 116.364 L1080.09 90.4383 Z" fill="#000000" fill-rule="nonzero" fill-opacity="1" /><path clip-path="url(#clip210)" d="M1122.98 103.332 Q1117.82 103.332 1115.83 104.512 Q1113.84 105.693 1113.84 108.54 Q1113.84 110.809 1115.32 112.151 Q1116.82 113.471 1119.39 113.471 Q1122.94 113.471 1125.06 110.971 Q1127.22 108.447 1127.22 104.281 L1127.22 103.332 L1122.98 103.332 M1131.48 101.573 L1131.48 116.364 L1127.22 116.364 L1127.22 112.429 Q1125.76 114.79 1123.58 115.924 Q1121.41 117.035 1118.26 117.035 Q1114.28 117.035 1111.92 114.813 Q1109.58 112.568 1109.58 108.818 Q1109.58 104.443 1112.5 102.221 Q1115.44 99.9984 1121.25 99.9984 L1127.22 99.9984 L1127.22 99.5818 Q1127.22 96.642 1125.27 95.0448 Q1123.35 93.4244 1119.86 93.4244 Q1117.63 93.4244 1115.53 93.9568 Q1113.42 94.4892 1111.48 95.554 L1111.48 91.6189 Q1113.81 90.7161 1116.01 90.2763 Q1118.21 89.8133 1120.3 89.8133 Q1125.92 89.8133 1128.7 92.73 Q1131.48 95.6466 1131.48 101.573 Z" fill="#000000" fill-rule="nonzero" fill-opacity="1" /><path clip-path="url(#clip210)" d="M1140.25 80.3458 L1144.51 80.3458 L1144.51 116.364 L1140.25 116.364 L1140.25 80.3458 Z" fill="#000000" fill-rule="nonzero" fill-opacity="1" /><path clip-path="url(#clip210)" d="M1152.98 106.133 L1152.98 90.4383 L1157.24 90.4383 L1157.24 105.971 Q1157.24 109.651 1158.68 111.503 Q1160.11 113.332 1162.98 113.332 Q1166.43 113.332 1168.42 111.133 Q1170.43 108.934 1170.43 105.137 L1170.43 90.4383 L1174.69 90.4383 L1174.69 116.364 L1170.43 116.364 L1170.43 112.383 Q1168.88 114.744 1166.82 115.901 Q1164.79 117.035 1162.08 117.035 Q1157.61 117.035 1155.3 114.258 Q1152.98 111.48 1152.98 106.133 M1163.7 89.8133 L1163.7 89.8133 Z" fill="#000000" fill-rule="nonzero" fill-opacity="1" /><path clip-path="url(#clip210)" d="M1205.64 102.336 L1205.64 104.42 L1186.06 104.42 Q1186.34 108.818 1188.7 111.133 Q1191.08 113.424 1195.32 113.424 Q1197.77 113.424 1200.06 112.822 Q1202.38 112.221 1204.65 111.017 L1204.65 115.045 Q1202.36 116.017 1199.95 116.526 Q1197.54 117.035 1195.06 117.035 Q1188.86 117.035 1185.23 113.424 Q1181.62 109.813 1181.62 103.656 Q1181.62 97.2901 1185.04 93.5633 Q1188.49 89.8133 1194.32 89.8133 Q1199.56 89.8133 1202.59 93.1929 Q1205.64 96.5494 1205.64 102.336 M1201.38 101.086 Q1201.34 97.591 1199.42 95.5077 Q1197.52 93.4244 1194.37 93.4244 Q1190.81 93.4244 1188.65 95.4383 Q1186.52 97.4522 1186.2 101.11 L1201.38 101.086 Z" fill="#000000" fill-rule="nonzero" fill-opacity="1" /><path clip-path="url(#clip210)" d="M1228.26 94.8364 L1257.93 94.8364 L1257.93 98.7253 L1228.26 98.7253 L1228.26 94.8364 M1228.26 104.281 L1257.93 104.281 L1257.93 108.216 L1228.26 108.216 L1228.26 104.281 Z" fill="#000000" fill-rule="nonzero" fill-opacity="1" /><path clip-path="url(#clip210)" d="M1293.1 84.8828 Q1289.49 84.8828 1287.66 88.4476 Q1285.85 91.9892 1285.85 99.1188 Q1285.85 106.225 1287.66 109.79 Q1289.49 113.332 1293.1 113.332 Q1296.73 113.332 1298.54 109.79 Q1300.36 106.225 1300.36 99.1188 Q1300.36 91.9892 1298.54 88.4476 Q1296.73 84.8828 1293.1 84.8828 M1293.1 81.1791 Q1298.91 81.1791 1301.96 85.7856 Q1305.04 90.3689 1305.04 99.1188 Q1305.04 107.846 1301.96 112.452 Q1298.91 117.035 1293.1 117.035 Q1287.29 117.035 1284.21 112.452 Q1281.15 107.846 1281.15 99.1188 Q1281.15 90.3689 1284.21 85.7856 Q1287.29 81.1791 1293.1 81.1791 Z" fill="#000000" fill-rule="nonzero" fill-opacity="1" /><path clip-path="url(#clip210)" d="M1313.26 110.484 L1318.14 110.484 L1318.14 116.364 L1313.26 116.364 L1313.26 110.484 Z" fill="#000000" fill-rule="nonzero" fill-opacity="1" /><path clip-path="url(#clip210)" d="M1327.15 81.8041 L1349.37 81.8041 L1349.37 83.7948 L1336.82 116.364 L1331.94 116.364 L1343.74 85.7393 L1327.15 85.7393 L1327.15 81.8041 Z" fill="#000000" fill-rule="nonzero" fill-opacity="1" /><path clip-path="url(#clip210)" d="M1368.49 99.9521 Q1365.16 99.9521 1363.23 101.735 Q1361.34 103.517 1361.34 106.642 Q1361.34 109.767 1363.23 111.549 Q1365.16 113.332 1368.49 113.332 Q1371.82 113.332 1373.74 111.549 Q1375.67 109.744 1375.67 106.642 Q1375.67 103.517 1373.74 101.735 Q1371.85 99.9521 1368.49 99.9521 M1363.81 97.9614 Q1360.8 97.2207 1359.11 95.1605 Q1357.45 93.1003 1357.45 90.1374 Q1357.45 85.9939 1360.39 83.5865 Q1363.35 81.1791 1368.49 81.1791 Q1373.65 81.1791 1376.59 83.5865 Q1379.53 85.9939 1379.53 90.1374 Q1379.53 93.1003 1377.84 95.1605 Q1376.17 97.2207 1373.19 97.9614 Q1376.57 98.7484 1378.44 101.04 Q1380.34 103.332 1380.34 106.642 Q1380.34 111.665 1377.26 114.35 Q1374.21 117.035 1368.49 117.035 Q1362.77 117.035 1359.69 114.35 Q1356.64 111.665 1356.64 106.642 Q1356.64 103.332 1358.54 101.04 Q1360.43 98.7484 1363.81 97.9614 M1362.1 90.5772 Q1362.1 93.2624 1363.77 94.767 Q1365.46 96.2716 1368.49 96.2716 Q1371.5 96.2716 1373.19 94.767 Q1374.9 93.2624 1374.9 90.5772 Q1374.9 87.892 1373.19 86.3874 Q1371.5 84.8828 1368.49 84.8828 Q1365.46 84.8828 1363.77 86.3874 Q1362.1 87.892 1362.1 90.5772 Z" fill="#000000" fill-rule="nonzero" fill-opacity="1" /></svg>
