<?xml version="1.0" encoding="UTF-8" standalone="no"?>
<!DOCTYPE svg PUBLIC "-//W3C//DTD SVG 1.1//EN" "http://www.w3.org/Graphics/SVG/1.1/DTD/svg11.dtd">
<svg xmlns="http://www.w3.org/2000/svg" xmlns:xlink="http://www.w3.org/1999/xlink" version="1.1" width="257.9173pt" height="122.91743pt" viewBox="0 0 257.9173 122.91743">
<g enable-background="new">
<g>
<path stroke-width=".75" stroke-linecap="butt" stroke-miterlimit="4" stroke-linejoin="miter" fill="none" stroke="#4d4d4d" d="M 8.957 38.957 L 53.957 8.957 "/>
<path stroke-width=".75" stroke-linecap="butt" stroke-miterlimit="4" stroke-linejoin="miter" fill="none" stroke="#4d4d4d" d="M 8.957 83.957 L 98.957 38.957 "/>
<path stroke-width=".75" stroke-linecap="butt" stroke-miterlimit="4" stroke-linejoin="miter" fill="none" stroke="#4d4d4d" d="M 98.957 83.957 L 53.957 8.957 "/>
<path stroke-width=".75" stroke-linecap="butt" stroke-miterlimit="4" stroke-linejoin="miter" fill="none" stroke="#4d4d4d" d="M 8.957 83.957 L 53.957 8.957 "/>
<path stroke-width="1.417323" stroke-linecap="butt" stroke-miterlimit="4" stroke-linejoin="miter" fill="none" stroke="#aa0000" d="M 8.957 38.957 L 98.957 38.957 "/>
<path stroke-width=".75" stroke-linecap="butt" stroke-miterlimit="4" stroke-linejoin="miter" fill="none" stroke="#4d4d4d" d="M 53.957 113.957 L 98.957 38.957 "/>
<path stroke-width=".75" stroke-linecap="butt" stroke-miterlimit="4" stroke-linejoin="miter" fill="none" stroke="#4d4d4d" d="M 8.957 38.957 L 53.957 113.957 "/>
<path d="M 17.207 38.957 C 17.207 43.516 13.516 47.207 8.957 47.207 C 4.402 47.207 .707 43.516 .707 38.957 C .707 34.402 4.402 30.707 8.957 30.707 C 13.516 30.707 17.207 34.402 17.207 38.957 Z M 17.207 38.957 " fill="#b3b3b3"/>
<path stroke-width="1.417323" stroke-linecap="butt" stroke-miterlimit="4" stroke-linejoin="miter" fill="none" stroke="#666666" d="M 17.207 38.957 C 17.207 43.516 13.516 47.207 8.957 47.207 C 4.402 47.207 .707 43.516 .707 38.957 C .707 34.402 4.402 30.707 8.957 30.707 C 13.516 30.707 17.207 34.402 17.207 38.957 Z M 17.207 38.957 "/>
<path d="M 62.207 8.957 C 62.207 13.516 58.516 17.207 53.957 17.207 C 49.402 17.207 45.707 13.516 45.707 8.957 C 45.707 4.402 49.402 .707 53.957 .707 C 58.516 .707 62.207 4.402 62.207 8.957 Z M 62.207 8.957 " fill="#b3b3b3"/>
<path stroke-width="1.417323" stroke-linecap="butt" stroke-miterlimit="4" stroke-linejoin="miter" fill="none" stroke="#666666" d="M 62.207 8.957 C 62.207 13.516 58.516 17.207 53.957 17.207 C 49.402 17.207 45.707 13.516 45.707 8.957 C 45.707 4.402 49.402 .707 53.957 .707 C 58.516 .707 62.207 4.402 62.207 8.957 Z M 62.207 8.957 "/>
<path d="M 107.207 38.957 C 107.207 43.516 103.516 47.207 98.957 47.207 C 94.402 47.207 90.707 43.516 90.707 38.957 C 90.707 34.402 94.402 30.707 98.957 30.707 C 103.516 30.707 107.207 34.402 107.207 38.957 Z M 107.207 38.957 " fill="#b3b3b3"/>
<path stroke-width="1.417323" stroke-linecap="butt" stroke-miterlimit="4" stroke-linejoin="miter" fill="none" stroke="#666666" d="M 107.207 38.957 C 107.207 43.516 103.516 47.207 98.957 47.207 C 94.402 47.207 90.707 43.516 90.707 38.957 C 90.707 34.402 94.402 30.707 98.957 30.707 C 103.516 30.707 107.207 34.402 107.207 38.957 Z M 107.207 38.957 "/>
<path d="M 107.207 83.957 C 107.207 88.516 103.516 92.207 98.957 92.207 C 94.402 92.207 90.707 88.516 90.707 83.957 C 90.707 79.402 94.402 75.707 98.957 75.707 C 103.516 75.707 107.207 79.402 107.207 83.957 Z M 107.207 83.957 " fill="#b3b3b3"/>
<path stroke-width="1.417323" stroke-linecap="butt" stroke-miterlimit="4" stroke-linejoin="miter" fill="none" stroke="#666666" d="M 107.207 83.957 C 107.207 88.516 103.516 92.207 98.957 92.207 C 94.402 92.207 90.707 88.516 90.707 83.957 C 90.707 79.402 94.402 75.707 98.957 75.707 C 103.516 75.707 107.207 79.402 107.207 83.957 Z M 107.207 83.957 "/>
<path d="M 62.207 113.957 C 62.207 118.516 58.516 122.207 53.957 122.207 C 49.402 122.207 45.707 118.516 45.707 113.957 C 45.707 109.402 49.402 105.707 53.957 105.707 C 58.516 105.707 62.207 109.402 62.207 113.957 Z M 62.207 113.957 " fill="#b3b3b3"/>
<path stroke-width="1.417323" stroke-linecap="butt" stroke-miterlimit="4" stroke-linejoin="miter" fill="none" stroke="#666666" d="M 62.207 113.957 C 62.207 118.516 58.516 122.207 53.957 122.207 C 49.402 122.207 45.707 118.516 45.707 113.957 C 45.707 109.402 49.402 105.707 53.957 105.707 C 58.516 105.707 62.207 109.402 62.207 113.957 Z M 62.207 113.957 "/>
<path d="M 17.207 83.957 C 17.207 88.516 13.516 92.207 8.957 92.207 C 4.402 92.207 .707 88.516 .707 83.957 C .707 79.402 4.402 75.707 8.957 75.707 C 13.516 75.707 17.207 79.402 17.207 83.957 Z M 17.207 83.957 " fill="#b3b3b3"/>
<path stroke-width="1.417323" stroke-linecap="butt" stroke-miterlimit="4" stroke-linejoin="miter" fill="none" stroke="#666666" d="M 17.207 83.957 C 17.207 88.516 13.516 92.207 8.957 92.207 C 4.402 92.207 .707 88.516 .707 83.957 C .707 79.402 4.402 75.707 8.957 75.707 C 13.516 75.707 17.207 79.402 17.207 83.957 Z M 17.207 83.957 "/>
<path stroke-width=".75" stroke-linecap="butt" stroke-miterlimit="4" stroke-linejoin="miter" fill="none" stroke="#4d4d4d" d="M 158.957 38.957 L 203.957 8.957 "/>
<path stroke-width=".75" stroke-linecap="butt" stroke-miterlimit="4" stroke-linejoin="miter" fill="none" stroke="#4d4d4d" d="M 158.957 83.957 L 248.957 38.957 "/>
<path stroke-width=".75" stroke-linecap="butt" stroke-miterlimit="4" stroke-linejoin="miter" fill="none" stroke="#4d4d4d" d="M 248.957 83.957 L 203.957 8.957 "/>
<path stroke-width=".75" stroke-linecap="butt" stroke-miterlimit="4" stroke-linejoin="miter" fill="none" stroke="#4d4d4d" d="M 158.957 83.957 L 203.957 8.957 "/>
<path stroke-width=".75" stroke-linecap="butt" stroke-miterlimit="4" stroke-linejoin="miter" fill="none" stroke="#4d4d4d" d="M 203.957 113.957 L 248.957 38.957 "/>
<path stroke-width=".75" stroke-linecap="butt" stroke-miterlimit="4" stroke-linejoin="miter" fill="none" stroke="#4d4d4d" d="M 158.957 38.957 L 203.957 113.957 "/>
<path d="M 167.207 38.957 C 167.207 43.516 163.516 47.207 158.957 47.207 C 154.402 47.207 150.707 43.516 150.707 38.957 C 150.707 34.402 154.402 30.707 158.957 30.707 C 163.516 30.707 167.207 34.402 167.207 38.957 Z M 167.207 38.957 " fill="#b3b3b3"/>
<path stroke-width="1.417323" stroke-linecap="butt" stroke-miterlimit="4" stroke-linejoin="miter" fill="none" stroke="#666666" d="M 167.207 38.957 C 167.207 43.516 163.516 47.207 158.957 47.207 C 154.402 47.207 150.707 43.516 150.707 38.957 C 150.707 34.402 154.402 30.707 158.957 30.707 C 163.516 30.707 167.207 34.402 167.207 38.957 Z M 167.207 38.957 "/>
<path d="M 212.207 8.957 C 212.207 13.516 208.516 17.207 203.957 17.207 C 199.402 17.207 195.707 13.516 195.707 8.957 C 195.707 4.402 199.402 .707 203.957 .707 C 208.516 .707 212.207 4.402 212.207 8.957 Z M 212.207 8.957 " fill="#b3b3b3"/>
<path stroke-width="1.417323" stroke-linecap="butt" stroke-miterlimit="4" stroke-linejoin="miter" fill="none" stroke="#666666" d="M 212.207 8.957 C 212.207 13.516 208.516 17.207 203.957 17.207 C 199.402 17.207 195.707 13.516 195.707 8.957 C 195.707 4.402 199.402 .707 203.957 .707 C 208.516 .707 212.207 4.402 212.207 8.957 Z M 212.207 8.957 "/>
<path d="M 257.207 38.957 C 257.207 43.516 253.516 47.207 248.957 47.207 C 244.402 47.207 240.707 43.516 240.707 38.957 C 240.707 34.402 244.402 30.707 248.957 30.707 C 253.516 30.707 257.207 34.402 257.207 38.957 Z M 257.207 38.957 " fill="#b3b3b3"/>
<path stroke-width="1.417323" stroke-linecap="butt" stroke-miterlimit="4" stroke-linejoin="miter" fill="none" stroke="#666666" d="M 257.207 38.957 C 257.207 43.516 253.516 47.207 248.957 47.207 C 244.402 47.207 240.707 43.516 240.707 38.957 C 240.707 34.402 244.402 30.707 248.957 30.707 C 253.516 30.707 257.207 34.402 257.207 38.957 Z M 257.207 38.957 "/>
<path d="M 257.207 83.957 C 257.207 88.516 253.516 92.207 248.957 92.207 C 244.402 92.207 240.707 88.516 240.707 83.957 C 240.707 79.402 244.402 75.707 248.957 75.707 C 253.516 75.707 257.207 79.402 257.207 83.957 Z M 257.207 83.957 " fill="#b3b3b3"/>
<path stroke-width="1.417323" stroke-linecap="butt" stroke-miterlimit="4" stroke-linejoin="miter" fill="none" stroke="#666666" d="M 257.207 83.957 C 257.207 88.516 253.516 92.207 248.957 92.207 C 244.402 92.207 240.707 88.516 240.707 83.957 C 240.707 79.402 244.402 75.707 248.957 75.707 C 253.516 75.707 257.207 79.402 257.207 83.957 Z M 257.207 83.957 "/>
<path d="M 212.207 113.957 C 212.207 118.516 208.516 122.207 203.957 122.207 C 199.402 122.207 195.707 118.516 195.707 113.957 C 195.707 109.402 199.402 105.707 203.957 105.707 C 208.516 105.707 212.207 109.402 212.207 113.957 Z M 212.207 113.957 " fill="#b3b3b3"/>
<path stroke-width="1.417323" stroke-linecap="butt" stroke-miterlimit="4" stroke-linejoin="miter" fill="none" stroke="#666666" d="M 212.207 113.957 C 212.207 118.516 208.516 122.207 203.957 122.207 C 199.402 122.207 195.707 118.516 195.707 113.957 C 195.707 109.402 199.402 105.707 203.957 105.707 C 208.516 105.707 212.207 109.402 212.207 113.957 Z M 212.207 113.957 "/>
<path d="M 167.207 83.957 C 167.207 88.516 163.516 92.207 158.957 92.207 C 154.402 92.207 150.707 88.516 150.707 83.957 C 150.707 79.402 154.402 75.707 158.957 75.707 C 163.516 75.707 167.207 79.402 167.207 83.957 Z M 167.207 83.957 " fill="#b3b3b3"/>
<path stroke-width="1.417323" stroke-linecap="butt" stroke-miterlimit="4" stroke-linejoin="miter" fill="none" stroke="#666666" d="M 167.207 83.957 C 167.207 88.516 163.516 92.207 158.957 92.207 C 154.402 92.207 150.707 88.516 150.707 83.957 C 150.707 79.402 154.402 75.707 158.957 75.707 C 163.516 75.707 167.207 79.402 167.207 83.957 Z M 167.207 83.957 "/>
</g>
</g>
</svg>
